<svg xmlns="http://www.w3.org/2000/svg" version="1.1" viewBox="-5.0 -10.0 110.0 135.0">
 <path d="m72.484 61.285c8.918 0.75391 16.199 4.6133 21.773 11.656h-88.516l2.8516-1.9453 34.027-1.0508c2.1133-0.066406 4.3281-5.625 8.918-5.9844 7.7461-0.60156 9.6836-2.1953 14.68-2.6523zm22.516 31.992c-1.9336 0.35938-3.3789-0.13672-5.2969-1.2188-6-3.3867-6.6562 4.2266-16.582-0.31641-1.8164-0.83203-5.5859 1.4648-7.7852 1.4648-2.2031 0-5.9727-2.2969-7.7852-1.4648-9.9258 4.543-10.582-3.0664-16.582 0.31641-3.2969 1.8594-9.3008 1.8594-12.598 0-6-3.3867-6.6562 4.2266-16.582-0.31641-1.6797-0.76563-4.7578 0.64453-6.7891 1.2344v-2.0977c2.3633-0.77734 5.3281-2.0039 7.6133-0.95703 9.1211 4.1758 9.3984-3.7422 16.73 0.39453 2.668 1.5078 7.9688 1.5078 10.641 0 7.3359-4.1367 7.6133 3.7773 16.73-0.39453 2.8203-1.293 6.7031 1.2734 8.6172 1.2734 1.9141 0 5.7969-2.5664 8.6172-1.2734 9.1211 4.1758 9.3945-3.7422 16.73 0.39453 1.6758 0.94531 2.6797 1.3047 4.3164 0.91016v2.0508zm0-10.906c-1.6367 0.39453-2.6406 0.035156-4.3164-0.91016-7.1758-4.0508-11.242 2.1133-16.73-0.39453-6.4648-2.957-7.3281 1.2773-8.6172 1.2773-1.2891 0-2.1523-4.2344-8.6172-1.2773-5.4883 2.5117-9.5547-3.6523-16.73 0.39453-2.6719 1.5078-7.9688 1.5078-10.641 0-7.3359-4.1367-7.6133 3.7773-16.73-0.39453-2.2891-1.0469-5.2578 0.17969-7.6172 0.95703v2.0977c2.0312-0.59375 5.1094-2.0039 6.7812-1.2383 9.9258 4.543 10.582-3.0664 16.582 0.31641 3.2969 1.8594 9.3008 1.8594 12.598 0 6.2656-3.5352 10.164 2.6172 16.582-0.31641 5.4531-2.4961 4.8984 1.4648 7.7852 1.4648 2.8906 0 2.3359-3.9609 7.7852-1.4648 6.4141 2.9375 10.316-3.2188 16.582 0.31641 1.9219 1.082 3.3633 1.5781 5.2969 1.2188zm-34.164-21.41v-7.3633c0-1.6367 0.65234-3.1914 1.8086-4.3477 3.8984-3.8984 10.504-1.0703 10.504 4.3477v6.3984c4.7812 0.51172 8.293 1.6016 12.453 3.75l-2.9766-20.914-6.9531 0.33594-8.6406-0.70703-8.3672 1.6484-7.5234-0.80859-2.9297 16.91c3.8477 0.16016 7.2852 0.53516 11.086 1.1484zm10.613-1.0938c-3.1406-0.16406-6.1953 0.042968-9.2617 0.73047v-7.0039c0-4.2188 5.1484-6.4375 8.1953-3.3906 0.90234 0.90234 1.4102 2.1133 1.4102 3.3906v6.2891zm-1.0781-32.27c8.043 0.85938 16.832 5.2695 19.258 13.547l-13.5 0.65234c-1.3477-5.4844-3.0742-9.8477-6.5234-14.281zm-2.5742-0.070312c3.625 3.8203 5.6406 9.1992 6.9336 14.219l-7.9102-0.62109-7.3984 1.4609c1.2773-5.1094 3.1992-11.25 6.8594-15.156h1.418zm-9.7852 15.188-13.668-1.5195c2.375-8.3164 11.27-12.754 19.316-13.598l0.73828-0.078125c-3.4258 4.6367-5.0469 9.6055-6.3867 15.195zm-29.934-19.945c-1.9805-1.8594-5.6133-0.58594-5.3047 2.8125l-7.1914 3.8945c2.582-4.9219 5.1523-7.4102 10.934-9.0547 0.58203-0.16406 0.76172-1.0859-0.089844-1.3203-9.3594-2.5586-11.449-0.51172-19.375 5.2734 2.3242-4.082 5.1992-8.3906 9.5469-10.523 3.0156-1.4805 5.8672-1.2188 8.4062 0.92578 0.53516 0.45312 1.3789-0.12109 1.0234-0.84766l-3.3828-7.3867c2.8984 2.1562 6.8203 5.4453 7.4688 9.2266 0.19141 1.1211 1.5234 0.19531 2.6367-0.15234 2.7461-0.86328 4.5352-0.66016 7.1484-0.27344l-5.2461 2.1211c-0.66016 0.26562-0.52734 1.293 0.28125 1.3008 2.6016 0.023437 4.4844 1.8633 5.5391 4.1094 1.6719 3.5586 1.5938 7.543 1.4883 11.32-0.98047-2.7891-2.3906-7.1055-3.5781-9.5-1.1094-2.2383-2.3828-3.8164-5.0391-3.4453-0.42578 0.058594-0.67188 0.48047-0.54688 0.88281 1.0078 3.2969 1.5234 8.125 1.1172 11.629l-0.24609 2.1172c-0.58203-3.0273-0.88281-4.8906-2.1133-7.8672 2-2.582-0.16406-5.9062-3.3359-5.1133zm1.7656 7.5625c0.33203-0.48047 0.31641-0.85938 0.33203-1.3867-1.6289 0.32031-2.0625 0.089844-3.375-0.79687 0.097657 0.85547 0.18359 1.1719-0.050781 2.0352l0.84375 0.80859 0.019531-0.03125c0.92578 0.40625 1.625 0.015624 2.25-0.60938zm1.125-4.4141c0-1.3203-0.98438-1.7227-2.0273-1.8555 0.27344 1.4961 0.16797 2.1094-0.88281 3.3828l0.42188 0.16406c1.1875 0.46484 2.4883-0.40234 2.4883-1.6914zm-5.1719 0.89062c0.43359 0.37109 1.9297-0.41797 1.9297-1.7305 0-2.3906-3.6289-2.3906-3.6289 0-0.003906 1.418 0.77344 0.9375 1.6992 1.7305zm0.88672 5.1797-0.67969-0.55469-0.97656 0.66797c-3.8359 12.227-6.0156 24.273-7.3633 36.992 2.4922-1.7422 4.3789-2.9375 7.1289-4.3203-0.89844-11.238-0.29688-21.656 2.0977-32.66zm-1.4531-1.7461c1.2461-1.8047-1.2305-3.8633-2.7812-2.3164-1.5742 1.5742 0.64453 4.4922 2.8047 2.3398zm-4.5469 38.43-0.98828 0.64062 22.898-0.70703c1.0273-0.03125 3.8945-5.5977 8.8555-5.9844l1.5547-0.13672v-0.59766c-11.957-1.1445-22.082 0.16797-32.32 6.7852z" fill-rule="evenodd"/>
<text x="0.0" y="117.5" font-size="5.0" font-weight="bold" font-family="Arbeit Regular, Helvetica, Arial-Unicode, Arial, Sans-serif" fill="#000000">Created by Nurul Hotimah</text><text x="0.0" y="122.5" font-size="5.0" font-weight="bold" font-family="Arbeit Regular, Helvetica, Arial-Unicode, Arial, Sans-serif" fill="#000000">from Noun Project</text></svg>