<svg xmlns="http://www.w3.org/2000/svg" version="1.1" viewBox="-5.0 -10.0 110.0 135.0">
 <defs>
  <clipPath id="dd">
   <path d="m30 29h42v1h-42z"/>
  </clipPath>
  <clipPath id="cj">
   <path d="m50.852 29.156c4.6016 0 8.8398 1.5195 12.246 4.0938l-5.2539 0.21484 5.7969 0.21484c1.7734 1.4141 3.2969 3.1133 4.4883 5.0352l-13.551 0.50391 14.199 0.54688c0.79688 1.5195 1.4492 3.1484 1.8867 4.8555l-10.105 0.39844 10.289 0.39844c0.25391 1.3398 0.39844 2.7148 0.39844 4.1289v1.125l-2.5 0.10938-1.8086-2.6797-7.2461 5.1094-9.7109-9.5312-6.0117 5.4688-2.2812 3.7305-2.6094 0.61328-2.4258 2.8594-2.1758 0.69141-3.2266-3.2969-0.28906 0.25391c-0.32422-1.3398-0.46875-2.7148-0.50391-4.1289l8.8398-0.35938-8.8398-0.32422c0.035157-1.6641 0.25391-3.2969 0.69141-4.8203l15.715-0.61719-15.395-0.61328c0.54688-1.5586 1.2305-3.0469 2.1016-4.4219l19.27-0.76172-18.254-0.69141c1.375-1.8438 3.0781-3.4062 4.9648-4.7109l10.035-0.35938-8.8398-0.35938c2.9688-1.7031 6.4492-2.6758 10.105-2.6758z"/>
  </clipPath>
  <clipPath id="by">
   <path d="m30 29h42v2h-42z"/>
  </clipPath>
  <clipPath id="bn">
   <path d="m50.852 29.156c4.6016 0 8.8398 1.5195 12.246 4.0938l-5.2539 0.21484 5.7969 0.21484c1.7734 1.4141 3.2969 3.1133 4.4883 5.0352l-13.551 0.50391 14.199 0.54688c0.79688 1.5195 1.4492 3.1484 1.8867 4.8555l-10.105 0.39844 10.289 0.39844c0.25391 1.3398 0.39844 2.7148 0.39844 4.1289v1.125l-2.5 0.10938-1.8086-2.6797-7.2461 5.1094-9.7109-9.5312-6.0117 5.4688-2.2812 3.7305-2.6094 0.61328-2.4258 2.8594-2.1758 0.69141-3.2266-3.2969-0.28906 0.25391c-0.32422-1.3398-0.46875-2.7148-0.50391-4.1289l8.8398-0.35938-8.8398-0.32422c0.035157-1.6641 0.25391-3.2969 0.69141-4.8203l15.715-0.61719-15.395-0.61328c0.54688-1.5586 1.2305-3.0469 2.1016-4.4219l19.27-0.76172-18.254-0.69141c1.375-1.8438 3.0781-3.4062 4.9648-4.7109l10.035-0.35938-8.8398-0.35938c2.9688-1.7031 6.4492-2.6758 10.105-2.6758z"/>
  </clipPath>
  <clipPath id="bc">
   <path d="m30 30h42v1h-42z"/>
  </clipPath>
  <clipPath id="ar">
   <path d="m50.852 29.156c4.6016 0 8.8398 1.5195 12.246 4.0938l-5.2539 0.21484 5.7969 0.21484c1.7734 1.4141 3.2969 3.1133 4.4883 5.0352l-13.551 0.50391 14.199 0.54688c0.79688 1.5195 1.4492 3.1484 1.8867 4.8555l-10.105 0.39844 10.289 0.39844c0.25391 1.3398 0.39844 2.7148 0.39844 4.1289v1.125l-2.5 0.10938-1.8086-2.6797-7.2461 5.1094-9.7109-9.5312-6.0117 5.4688-2.2812 3.7305-2.6094 0.61328-2.4258 2.8594-2.1758 0.69141-3.2266-3.2969-0.28906 0.25391c-0.32422-1.3398-0.46875-2.7148-0.50391-4.1289l8.8398-0.35938-8.8398-0.32422c0.035157-1.6641 0.25391-3.2969 0.69141-4.8203l15.715-0.61719-15.395-0.61328c0.54688-1.5586 1.2305-3.0469 2.1016-4.4219l19.27-0.76172-18.254-0.69141c1.375-1.8438 3.0781-3.4062 4.9648-4.7109l10.035-0.35938-8.8398-0.35938c2.9688-1.7031 6.4492-2.6758 10.105-2.6758z"/>
  </clipPath>
  <clipPath id="ag">
   <path d="m30 30h42v2h-42z"/>
  </clipPath>
  <clipPath id="v">
   <path d="m50.852 29.156c4.6016 0 8.8398 1.5195 12.246 4.0938l-5.2539 0.21484 5.7969 0.21484c1.7734 1.4141 3.2969 3.1133 4.4883 5.0352l-13.551 0.50391 14.199 0.54688c0.79688 1.5195 1.4492 3.1484 1.8867 4.8555l-10.105 0.39844 10.289 0.39844c0.25391 1.3398 0.39844 2.7148 0.39844 4.1289v1.125l-2.5 0.10938-1.8086-2.6797-7.2461 5.1094-9.7109-9.5312-6.0117 5.4688-2.2812 3.7305-2.6094 0.61328-2.4258 2.8594-2.1758 0.69141-3.2266-3.2969-0.28906 0.25391c-0.32422-1.3398-0.46875-2.7148-0.50391-4.1289l8.8398-0.35938-8.8398-0.32422c0.035157-1.6641 0.25391-3.2969 0.69141-4.8203l15.715-0.61719-15.395-0.61328c0.54688-1.5586 1.2305-3.0469 2.1016-4.4219l19.27-0.76172-18.254-0.69141c1.375-1.8438 3.0781-3.4062 4.9648-4.7109l10.035-0.35938-8.8398-0.35938c2.9688-1.7031 6.4492-2.6758 10.105-2.6758z"/>
  </clipPath>
  <clipPath id="k">
   <path d="m30 31h42v1h-42z"/>
  </clipPath>
  <clipPath id="dc">
   <path d="m50.852 29.156c4.6016 0 8.8398 1.5195 12.246 4.0938l-5.2539 0.21484 5.7969 0.21484c1.7734 1.4141 3.2969 3.1133 4.4883 5.0352l-13.551 0.50391 14.199 0.54688c0.79688 1.5195 1.4492 3.1484 1.8867 4.8555l-10.105 0.39844 10.289 0.39844c0.25391 1.3398 0.39844 2.7148 0.39844 4.1289v1.125l-2.5 0.10938-1.8086-2.6797-7.2461 5.1094-9.7109-9.5312-6.0117 5.4688-2.2812 3.7305-2.6094 0.61328-2.4258 2.8594-2.1758 0.69141-3.2266-3.2969-0.28906 0.25391c-0.32422-1.3398-0.46875-2.7148-0.50391-4.1289l8.8398-0.35938-8.8398-0.32422c0.035157-1.6641 0.25391-3.2969 0.69141-4.8203l15.715-0.61719-15.395-0.61328c0.54688-1.5586 1.2305-3.0469 2.1016-4.4219l19.27-0.76172-18.254-0.69141c1.375-1.8438 3.0781-3.4062 4.9648-4.7109l10.035-0.35938-8.8398-0.35938c2.9688-1.7031 6.4492-2.6758 10.105-2.6758z"/>
  </clipPath>
  <clipPath id="cs">
   <path d="m30 31h42v2h-42z"/>
  </clipPath>
  <clipPath id="cr">
   <path d="m50.852 29.156c4.6016 0 8.8398 1.5195 12.246 4.0938l-5.2539 0.21484 5.7969 0.21484c1.7734 1.4141 3.2969 3.1133 4.4883 5.0352l-13.551 0.50391 14.199 0.54688c0.79688 1.5195 1.4492 3.1484 1.8867 4.8555l-10.105 0.39844 10.289 0.39844c0.25391 1.3398 0.39844 2.7148 0.39844 4.1289v1.125l-2.5 0.10938-1.8086-2.6797-7.2461 5.1094-9.7109-9.5312-6.0117 5.4688-2.2812 3.7305-2.6094 0.61328-2.4258 2.8594-2.1758 0.69141-3.2266-3.2969-0.28906 0.25391c-0.32422-1.3398-0.46875-2.7148-0.50391-4.1289l8.8398-0.35938-8.8398-0.32422c0.035157-1.6641 0.25391-3.2969 0.69141-4.8203l15.715-0.61719-15.395-0.61328c0.54688-1.5586 1.2305-3.0469 2.1016-4.4219l19.27-0.76172-18.254-0.69141c1.375-1.8438 3.0781-3.4062 4.9648-4.7109l10.035-0.35938-8.8398-0.35938c2.9688-1.7031 6.4492-2.6758 10.105-2.6758z"/>
  </clipPath>
  <clipPath id="cq">
   <path d="m30 32h42v1h-42z"/>
  </clipPath>
  <clipPath id="cp">
   <path d="m50.852 29.156c4.6016 0 8.8398 1.5195 12.246 4.0938l-5.2539 0.21484 5.7969 0.21484c1.7734 1.4141 3.2969 3.1133 4.4883 5.0352l-13.551 0.50391 14.199 0.54688c0.79688 1.5195 1.4492 3.1484 1.8867 4.8555l-10.105 0.39844 10.289 0.39844c0.25391 1.3398 0.39844 2.7148 0.39844 4.1289v1.125l-2.5 0.10938-1.8086-2.6797-7.2461 5.1094-9.7109-9.5312-6.0117 5.4688-2.2812 3.7305-2.6094 0.61328-2.4258 2.8594-2.1758 0.69141-3.2266-3.2969-0.28906 0.25391c-0.32422-1.3398-0.46875-2.7148-0.50391-4.1289l8.8398-0.35938-8.8398-0.32422c0.035157-1.6641 0.25391-3.2969 0.69141-4.8203l15.715-0.61719-15.395-0.61328c0.54688-1.5586 1.2305-3.0469 2.1016-4.4219l19.27-0.76172-18.254-0.69141c1.375-1.8438 3.0781-3.4062 4.9648-4.7109l10.035-0.35938-8.8398-0.35938c2.9688-1.7031 6.4492-2.6758 10.105-2.6758z"/>
  </clipPath>
  <clipPath id="co">
   <path d="m30 32h42v2h-42z"/>
  </clipPath>
  <clipPath id="cn">
   <path d="m50.852 29.156c4.6016 0 8.8398 1.5195 12.246 4.0938l-5.2539 0.21484 5.7969 0.21484c1.7734 1.4141 3.2969 3.1133 4.4883 5.0352l-13.551 0.50391 14.199 0.54688c0.79688 1.5195 1.4492 3.1484 1.8867 4.8555l-10.105 0.39844 10.289 0.39844c0.25391 1.3398 0.39844 2.7148 0.39844 4.1289v1.125l-2.5 0.10938-1.8086-2.6797-7.2461 5.1094-9.7109-9.5312-6.0117 5.4688-2.2812 3.7305-2.6094 0.61328-2.4258 2.8594-2.1758 0.69141-3.2266-3.2969-0.28906 0.25391c-0.32422-1.3398-0.46875-2.7148-0.50391-4.1289l8.8398-0.35938-8.8398-0.32422c0.035157-1.6641 0.25391-3.2969 0.69141-4.8203l15.715-0.61719-15.395-0.61328c0.54688-1.5586 1.2305-3.0469 2.1016-4.4219l19.27-0.76172-18.254-0.69141c1.375-1.8438 3.0781-3.4062 4.9648-4.7109l10.035-0.35938-8.8398-0.35938c2.9688-1.7031 6.4492-2.6758 10.105-2.6758z"/>
  </clipPath>
  <clipPath id="cm">
   <path d="m30 33h42v1h-42z"/>
  </clipPath>
  <clipPath id="cl">
   <path d="m50.852 29.156c4.6016 0 8.8398 1.5195 12.246 4.0938l-5.2539 0.21484 5.7969 0.21484c1.7734 1.4141 3.2969 3.1133 4.4883 5.0352l-13.551 0.50391 14.199 0.54688c0.79688 1.5195 1.4492 3.1484 1.8867 4.8555l-10.105 0.39844 10.289 0.39844c0.25391 1.3398 0.39844 2.7148 0.39844 4.1289v1.125l-2.5 0.10938-1.8086-2.6797-7.2461 5.1094-9.7109-9.5312-6.0117 5.4688-2.2812 3.7305-2.6094 0.61328-2.4258 2.8594-2.1758 0.69141-3.2266-3.2969-0.28906 0.25391c-0.32422-1.3398-0.46875-2.7148-0.50391-4.1289l8.8398-0.35938-8.8398-0.32422c0.035157-1.6641 0.25391-3.2969 0.69141-4.8203l15.715-0.61719-15.395-0.61328c0.54688-1.5586 1.2305-3.0469 2.1016-4.4219l19.27-0.76172-18.254-0.69141c1.375-1.8438 3.0781-3.4062 4.9648-4.7109l10.035-0.35938-8.8398-0.35938c2.9688-1.7031 6.4492-2.6758 10.105-2.6758z"/>
  </clipPath>
  <clipPath id="ck">
   <path d="m30 33h42v2h-42z"/>
  </clipPath>
  <clipPath id="ci">
   <path d="m50.852 29.156c4.6016 0 8.8398 1.5195 12.246 4.0938l-5.2539 0.21484 5.7969 0.21484c1.7734 1.4141 3.2969 3.1133 4.4883 5.0352l-13.551 0.50391 14.199 0.54688c0.79688 1.5195 1.4492 3.1484 1.8867 4.8555l-10.105 0.39844 10.289 0.39844c0.25391 1.3398 0.39844 2.7148 0.39844 4.1289v1.125l-2.5 0.10938-1.8086-2.6797-7.2461 5.1094-9.7109-9.5312-6.0117 5.4688-2.2812 3.7305-2.6094 0.61328-2.4258 2.8594-2.1758 0.69141-3.2266-3.2969-0.28906 0.25391c-0.32422-1.3398-0.46875-2.7148-0.50391-4.1289l8.8398-0.35938-8.8398-0.32422c0.035157-1.6641 0.25391-3.2969 0.69141-4.8203l15.715-0.61719-15.395-0.61328c0.54688-1.5586 1.2305-3.0469 2.1016-4.4219l19.27-0.76172-18.254-0.69141c1.375-1.8438 3.0781-3.4062 4.9648-4.7109l10.035-0.35938-8.8398-0.35938c2.9688-1.7031 6.4492-2.6758 10.105-2.6758z"/>
  </clipPath>
  <clipPath id="ch">
   <path d="m30 34h42v1h-42z"/>
  </clipPath>
  <clipPath id="cg">
   <path d="m50.852 29.156c4.6016 0 8.8398 1.5195 12.246 4.0938l-5.2539 0.21484 5.7969 0.21484c1.7734 1.4141 3.2969 3.1133 4.4883 5.0352l-13.551 0.50391 14.199 0.54688c0.79688 1.5195 1.4492 3.1484 1.8867 4.8555l-10.105 0.39844 10.289 0.39844c0.25391 1.3398 0.39844 2.7148 0.39844 4.1289v1.125l-2.5 0.10938-1.8086-2.6797-7.2461 5.1094-9.7109-9.5312-6.0117 5.4688-2.2812 3.7305-2.6094 0.61328-2.4258 2.8594-2.1758 0.69141-3.2266-3.2969-0.28906 0.25391c-0.32422-1.3398-0.46875-2.7148-0.50391-4.1289l8.8398-0.35938-8.8398-0.32422c0.035157-1.6641 0.25391-3.2969 0.69141-4.8203l15.715-0.61719-15.395-0.61328c0.54688-1.5586 1.2305-3.0469 2.1016-4.4219l19.27-0.76172-18.254-0.69141c1.375-1.8438 3.0781-3.4062 4.9648-4.7109l10.035-0.35938-8.8398-0.35938c2.9688-1.7031 6.4492-2.6758 10.105-2.6758z"/>
  </clipPath>
  <clipPath id="cf">
   <path d="m30 34h42v2h-42z"/>
  </clipPath>
  <clipPath id="ce">
   <path d="m50.852 29.156c4.6016 0 8.8398 1.5195 12.246 4.0938l-5.2539 0.21484 5.7969 0.21484c1.7734 1.4141 3.2969 3.1133 4.4883 5.0352l-13.551 0.50391 14.199 0.54688c0.79688 1.5195 1.4492 3.1484 1.8867 4.8555l-10.105 0.39844 10.289 0.39844c0.25391 1.3398 0.39844 2.7148 0.39844 4.1289v1.125l-2.5 0.10938-1.8086-2.6797-7.2461 5.1094-9.7109-9.5312-6.0117 5.4688-2.2812 3.7305-2.6094 0.61328-2.4258 2.8594-2.1758 0.69141-3.2266-3.2969-0.28906 0.25391c-0.32422-1.3398-0.46875-2.7148-0.50391-4.1289l8.8398-0.35938-8.8398-0.32422c0.035157-1.6641 0.25391-3.2969 0.69141-4.8203l15.715-0.61719-15.395-0.61328c0.54688-1.5586 1.2305-3.0469 2.1016-4.4219l19.27-0.76172-18.254-0.69141c1.375-1.8438 3.0781-3.4062 4.9648-4.7109l10.035-0.35938-8.8398-0.35938c2.9688-1.7031 6.4492-2.6758 10.105-2.6758z"/>
  </clipPath>
  <clipPath id="cd">
   <path d="m30 35h42v1h-42z"/>
  </clipPath>
  <clipPath id="cc">
   <path d="m50.852 29.156c4.6016 0 8.8398 1.5195 12.246 4.0938l-5.2539 0.21484 5.7969 0.21484c1.7734 1.4141 3.2969 3.1133 4.4883 5.0352l-13.551 0.50391 14.199 0.54688c0.79688 1.5195 1.4492 3.1484 1.8867 4.8555l-10.105 0.39844 10.289 0.39844c0.25391 1.3398 0.39844 2.7148 0.39844 4.1289v1.125l-2.5 0.10938-1.8086-2.6797-7.2461 5.1094-9.7109-9.5312-6.0117 5.4688-2.2812 3.7305-2.6094 0.61328-2.4258 2.8594-2.1758 0.69141-3.2266-3.2969-0.28906 0.25391c-0.32422-1.3398-0.46875-2.7148-0.50391-4.1289l8.8398-0.35938-8.8398-0.32422c0.035157-1.6641 0.25391-3.2969 0.69141-4.8203l15.715-0.61719-15.395-0.61328c0.54688-1.5586 1.2305-3.0469 2.1016-4.4219l19.27-0.76172-18.254-0.69141c1.375-1.8438 3.0781-3.4062 4.9648-4.7109l10.035-0.35938-8.8398-0.35938c2.9688-1.7031 6.4492-2.6758 10.105-2.6758z"/>
  </clipPath>
  <clipPath id="cb">
   <path d="m30 35h42v2h-42z"/>
  </clipPath>
  <clipPath id="ca">
   <path d="m50.852 29.156c4.6016 0 8.8398 1.5195 12.246 4.0938l-5.2539 0.21484 5.7969 0.21484c1.7734 1.4141 3.2969 3.1133 4.4883 5.0352l-13.551 0.50391 14.199 0.54688c0.79688 1.5195 1.4492 3.1484 1.8867 4.8555l-10.105 0.39844 10.289 0.39844c0.25391 1.3398 0.39844 2.7148 0.39844 4.1289v1.125l-2.5 0.10938-1.8086-2.6797-7.2461 5.1094-9.7109-9.5312-6.0117 5.4688-2.2812 3.7305-2.6094 0.61328-2.4258 2.8594-2.1758 0.69141-3.2266-3.2969-0.28906 0.25391c-0.32422-1.3398-0.46875-2.7148-0.50391-4.1289l8.8398-0.35938-8.8398-0.32422c0.035157-1.6641 0.25391-3.2969 0.69141-4.8203l15.715-0.61719-15.395-0.61328c0.54688-1.5586 1.2305-3.0469 2.1016-4.4219l19.27-0.76172-18.254-0.69141c1.375-1.8438 3.0781-3.4062 4.9648-4.7109l10.035-0.35938-8.8398-0.35938c2.9688-1.7031 6.4492-2.6758 10.105-2.6758z"/>
  </clipPath>
  <clipPath id="bz">
   <path d="m30 36h42v1h-42z"/>
  </clipPath>
  <clipPath id="bx">
   <path d="m50.852 29.156c4.6016 0 8.8398 1.5195 12.246 4.0938l-5.2539 0.21484 5.7969 0.21484c1.7734 1.4141 3.2969 3.1133 4.4883 5.0352l-13.551 0.50391 14.199 0.54688c0.79688 1.5195 1.4492 3.1484 1.8867 4.8555l-10.105 0.39844 10.289 0.39844c0.25391 1.3398 0.39844 2.7148 0.39844 4.1289v1.125l-2.5 0.10938-1.8086-2.6797-7.2461 5.1094-9.7109-9.5312-6.0117 5.4688-2.2812 3.7305-2.6094 0.61328-2.4258 2.8594-2.1758 0.69141-3.2266-3.2969-0.28906 0.25391c-0.32422-1.3398-0.46875-2.7148-0.50391-4.1289l8.8398-0.35938-8.8398-0.32422c0.035157-1.6641 0.25391-3.2969 0.69141-4.8203l15.715-0.61719-15.395-0.61328c0.54688-1.5586 1.2305-3.0469 2.1016-4.4219l19.27-0.76172-18.254-0.69141c1.375-1.8438 3.0781-3.4062 4.9648-4.7109l10.035-0.35938-8.8398-0.35938c2.9688-1.7031 6.4492-2.6758 10.105-2.6758z"/>
  </clipPath>
  <clipPath id="bw">
   <path d="m30 36h42v2h-42z"/>
  </clipPath>
  <clipPath id="bv">
   <path d="m50.852 29.156c4.6016 0 8.8398 1.5195 12.246 4.0938l-5.2539 0.21484 5.7969 0.21484c1.7734 1.4141 3.2969 3.1133 4.4883 5.0352l-13.551 0.50391 14.199 0.54688c0.79688 1.5195 1.4492 3.1484 1.8867 4.8555l-10.105 0.39844 10.289 0.39844c0.25391 1.3398 0.39844 2.7148 0.39844 4.1289v1.125l-2.5 0.10938-1.8086-2.6797-7.2461 5.1094-9.7109-9.5312-6.0117 5.4688-2.2812 3.7305-2.6094 0.61328-2.4258 2.8594-2.1758 0.69141-3.2266-3.2969-0.28906 0.25391c-0.32422-1.3398-0.46875-2.7148-0.50391-4.1289l8.8398-0.35938-8.8398-0.32422c0.035157-1.6641 0.25391-3.2969 0.69141-4.8203l15.715-0.61719-15.395-0.61328c0.54688-1.5586 1.2305-3.0469 2.1016-4.4219l19.27-0.76172-18.254-0.69141c1.375-1.8438 3.0781-3.4062 4.9648-4.7109l10.035-0.35938-8.8398-0.35938c2.9688-1.7031 6.4492-2.6758 10.105-2.6758z"/>
  </clipPath>
  <clipPath id="bu">
   <path d="m30 37h42v1h-42z"/>
  </clipPath>
  <clipPath id="bt">
   <path d="m50.852 29.156c4.6016 0 8.8398 1.5195 12.246 4.0938l-5.2539 0.21484 5.7969 0.21484c1.7734 1.4141 3.2969 3.1133 4.4883 5.0352l-13.551 0.50391 14.199 0.54688c0.79688 1.5195 1.4492 3.1484 1.8867 4.8555l-10.105 0.39844 10.289 0.39844c0.25391 1.3398 0.39844 2.7148 0.39844 4.1289v1.125l-2.5 0.10938-1.8086-2.6797-7.2461 5.1094-9.7109-9.5312-6.0117 5.4688-2.2812 3.7305-2.6094 0.61328-2.4258 2.8594-2.1758 0.69141-3.2266-3.2969-0.28906 0.25391c-0.32422-1.3398-0.46875-2.7148-0.50391-4.1289l8.8398-0.35938-8.8398-0.32422c0.035157-1.6641 0.25391-3.2969 0.69141-4.8203l15.715-0.61719-15.395-0.61328c0.54688-1.5586 1.2305-3.0469 2.1016-4.4219l19.27-0.76172-18.254-0.69141c1.375-1.8438 3.0781-3.4062 4.9648-4.7109l10.035-0.35938-8.8398-0.35938c2.9688-1.7031 6.4492-2.6758 10.105-2.6758z"/>
  </clipPath>
  <clipPath id="bs">
   <path d="m30 37h42v2h-42z"/>
  </clipPath>
  <clipPath id="br">
   <path d="m50.852 29.156c4.6016 0 8.8398 1.5195 12.246 4.0938l-5.2539 0.21484 5.7969 0.21484c1.7734 1.4141 3.2969 3.1133 4.4883 5.0352l-13.551 0.50391 14.199 0.54688c0.79688 1.5195 1.4492 3.1484 1.8867 4.8555l-10.105 0.39844 10.289 0.39844c0.25391 1.3398 0.39844 2.7148 0.39844 4.1289v1.125l-2.5 0.10938-1.8086-2.6797-7.2461 5.1094-9.7109-9.5312-6.0117 5.4688-2.2812 3.7305-2.6094 0.61328-2.4258 2.8594-2.1758 0.69141-3.2266-3.2969-0.28906 0.25391c-0.32422-1.3398-0.46875-2.7148-0.50391-4.1289l8.8398-0.35938-8.8398-0.32422c0.035157-1.6641 0.25391-3.2969 0.69141-4.8203l15.715-0.61719-15.395-0.61328c0.54688-1.5586 1.2305-3.0469 2.1016-4.4219l19.27-0.76172-18.254-0.69141c1.375-1.8438 3.0781-3.4062 4.9648-4.7109l10.035-0.35938-8.8398-0.35938c2.9688-1.7031 6.4492-2.6758 10.105-2.6758z"/>
  </clipPath>
  <clipPath id="bq">
   <path d="m30 38h42v1h-42z"/>
  </clipPath>
  <clipPath id="bp">
   <path d="m50.852 29.156c4.6016 0 8.8398 1.5195 12.246 4.0938l-5.2539 0.21484 5.7969 0.21484c1.7734 1.4141 3.2969 3.1133 4.4883 5.0352l-13.551 0.50391 14.199 0.54688c0.79688 1.5195 1.4492 3.1484 1.8867 4.8555l-10.105 0.39844 10.289 0.39844c0.25391 1.3398 0.39844 2.7148 0.39844 4.1289v1.125l-2.5 0.10938-1.8086-2.6797-7.2461 5.1094-9.7109-9.5312-6.0117 5.4688-2.2812 3.7305-2.6094 0.61328-2.4258 2.8594-2.1758 0.69141-3.2266-3.2969-0.28906 0.25391c-0.32422-1.3398-0.46875-2.7148-0.50391-4.1289l8.8398-0.35938-8.8398-0.32422c0.035157-1.6641 0.25391-3.2969 0.69141-4.8203l15.715-0.61719-15.395-0.61328c0.54688-1.5586 1.2305-3.0469 2.1016-4.4219l19.27-0.76172-18.254-0.69141c1.375-1.8438 3.0781-3.4062 4.9648-4.7109l10.035-0.35938-8.8398-0.35938c2.9688-1.7031 6.4492-2.6758 10.105-2.6758z"/>
  </clipPath>
  <clipPath id="bo">
   <path d="m30 38h42v2h-42z"/>
  </clipPath>
  <clipPath id="bm">
   <path d="m50.852 29.156c4.6016 0 8.8398 1.5195 12.246 4.0938l-5.2539 0.21484 5.7969 0.21484c1.7734 1.4141 3.2969 3.1133 4.4883 5.0352l-13.551 0.50391 14.199 0.54688c0.79688 1.5195 1.4492 3.1484 1.8867 4.8555l-10.105 0.39844 10.289 0.39844c0.25391 1.3398 0.39844 2.7148 0.39844 4.1289v1.125l-2.5 0.10938-1.8086-2.6797-7.2461 5.1094-9.7109-9.5312-6.0117 5.4688-2.2812 3.7305-2.6094 0.61328-2.4258 2.8594-2.1758 0.69141-3.2266-3.2969-0.28906 0.25391c-0.32422-1.3398-0.46875-2.7148-0.50391-4.1289l8.8398-0.35938-8.8398-0.32422c0.035157-1.6641 0.25391-3.2969 0.69141-4.8203l15.715-0.61719-15.395-0.61328c0.54688-1.5586 1.2305-3.0469 2.1016-4.4219l19.27-0.76172-18.254-0.69141c1.375-1.8438 3.0781-3.4062 4.9648-4.7109l10.035-0.35938-8.8398-0.35938c2.9688-1.7031 6.4492-2.6758 10.105-2.6758z"/>
  </clipPath>
  <clipPath id="bl">
   <path d="m30 39h42v1h-42z"/>
  </clipPath>
  <clipPath id="bk">
   <path d="m50.852 29.156c4.6016 0 8.8398 1.5195 12.246 4.0938l-5.2539 0.21484 5.7969 0.21484c1.7734 1.4141 3.2969 3.1133 4.4883 5.0352l-13.551 0.50391 14.199 0.54688c0.79688 1.5195 1.4492 3.1484 1.8867 4.8555l-10.105 0.39844 10.289 0.39844c0.25391 1.3398 0.39844 2.7148 0.39844 4.1289v1.125l-2.5 0.10938-1.8086-2.6797-7.2461 5.1094-9.7109-9.5312-6.0117 5.4688-2.2812 3.7305-2.6094 0.61328-2.4258 2.8594-2.1758 0.69141-3.2266-3.2969-0.28906 0.25391c-0.32422-1.3398-0.46875-2.7148-0.50391-4.1289l8.8398-0.35938-8.8398-0.32422c0.035157-1.6641 0.25391-3.2969 0.69141-4.8203l15.715-0.61719-15.395-0.61328c0.54688-1.5586 1.2305-3.0469 2.1016-4.4219l19.27-0.76172-18.254-0.69141c1.375-1.8438 3.0781-3.4062 4.9648-4.7109l10.035-0.35938-8.8398-0.35938c2.9688-1.7031 6.4492-2.6758 10.105-2.6758z"/>
  </clipPath>
  <clipPath id="bj">
   <path d="m30 39h42v2h-42z"/>
  </clipPath>
  <clipPath id="bi">
   <path d="m50.852 29.156c4.6016 0 8.8398 1.5195 12.246 4.0938l-5.2539 0.21484 5.7969 0.21484c1.7734 1.4141 3.2969 3.1133 4.4883 5.0352l-13.551 0.50391 14.199 0.54688c0.79688 1.5195 1.4492 3.1484 1.8867 4.8555l-10.105 0.39844 10.289 0.39844c0.25391 1.3398 0.39844 2.7148 0.39844 4.1289v1.125l-2.5 0.10938-1.8086-2.6797-7.2461 5.1094-9.7109-9.5312-6.0117 5.4688-2.2812 3.7305-2.6094 0.61328-2.4258 2.8594-2.1758 0.69141-3.2266-3.2969-0.28906 0.25391c-0.32422-1.3398-0.46875-2.7148-0.50391-4.1289l8.8398-0.35938-8.8398-0.32422c0.035157-1.6641 0.25391-3.2969 0.69141-4.8203l15.715-0.61719-15.395-0.61328c0.54688-1.5586 1.2305-3.0469 2.1016-4.4219l19.27-0.76172-18.254-0.69141c1.375-1.8438 3.0781-3.4062 4.9648-4.7109l10.035-0.35938-8.8398-0.35938c2.9688-1.7031 6.4492-2.6758 10.105-2.6758z"/>
  </clipPath>
  <clipPath id="bh">
   <path d="m30 40h42v1h-42z"/>
  </clipPath>
  <clipPath id="bg">
   <path d="m50.852 29.156c4.6016 0 8.8398 1.5195 12.246 4.0938l-5.2539 0.21484 5.7969 0.21484c1.7734 1.4141 3.2969 3.1133 4.4883 5.0352l-13.551 0.50391 14.199 0.54688c0.79688 1.5195 1.4492 3.1484 1.8867 4.8555l-10.105 0.39844 10.289 0.39844c0.25391 1.3398 0.39844 2.7148 0.39844 4.1289v1.125l-2.5 0.10938-1.8086-2.6797-7.2461 5.1094-9.7109-9.5312-6.0117 5.4688-2.2812 3.7305-2.6094 0.61328-2.4258 2.8594-2.1758 0.69141-3.2266-3.2969-0.28906 0.25391c-0.32422-1.3398-0.46875-2.7148-0.50391-4.1289l8.8398-0.35938-8.8398-0.32422c0.035157-1.6641 0.25391-3.2969 0.69141-4.8203l15.715-0.61719-15.395-0.61328c0.54688-1.5586 1.2305-3.0469 2.1016-4.4219l19.27-0.76172-18.254-0.69141c1.375-1.8438 3.0781-3.4062 4.9648-4.7109l10.035-0.35938-8.8398-0.35938c2.9688-1.7031 6.4492-2.6758 10.105-2.6758z"/>
  </clipPath>
  <clipPath id="bf">
   <path d="m30 40h42v2h-42z"/>
  </clipPath>
  <clipPath id="be">
   <path d="m50.852 29.156c4.6016 0 8.8398 1.5195 12.246 4.0938l-5.2539 0.21484 5.7969 0.21484c1.7734 1.4141 3.2969 3.1133 4.4883 5.0352l-13.551 0.50391 14.199 0.54688c0.79688 1.5195 1.4492 3.1484 1.8867 4.8555l-10.105 0.39844 10.289 0.39844c0.25391 1.3398 0.39844 2.7148 0.39844 4.1289v1.125l-2.5 0.10938-1.8086-2.6797-7.2461 5.1094-9.7109-9.5312-6.0117 5.4688-2.2812 3.7305-2.6094 0.61328-2.4258 2.8594-2.1758 0.69141-3.2266-3.2969-0.28906 0.25391c-0.32422-1.3398-0.46875-2.7148-0.50391-4.1289l8.8398-0.35938-8.8398-0.32422c0.035157-1.6641 0.25391-3.2969 0.69141-4.8203l15.715-0.61719-15.395-0.61328c0.54688-1.5586 1.2305-3.0469 2.1016-4.4219l19.27-0.76172-18.254-0.69141c1.375-1.8438 3.0781-3.4062 4.9648-4.7109l10.035-0.35938-8.8398-0.35938c2.9688-1.7031 6.4492-2.6758 10.105-2.6758z"/>
  </clipPath>
  <clipPath id="bd">
   <path d="m30 41h42v1h-42z"/>
  </clipPath>
  <clipPath id="bb">
   <path d="m50.852 29.156c4.6016 0 8.8398 1.5195 12.246 4.0938l-5.2539 0.21484 5.7969 0.21484c1.7734 1.4141 3.2969 3.1133 4.4883 5.0352l-13.551 0.50391 14.199 0.54688c0.79688 1.5195 1.4492 3.1484 1.8867 4.8555l-10.105 0.39844 10.289 0.39844c0.25391 1.3398 0.39844 2.7148 0.39844 4.1289v1.125l-2.5 0.10938-1.8086-2.6797-7.2461 5.1094-9.7109-9.5312-6.0117 5.4688-2.2812 3.7305-2.6094 0.61328-2.4258 2.8594-2.1758 0.69141-3.2266-3.2969-0.28906 0.25391c-0.32422-1.3398-0.46875-2.7148-0.50391-4.1289l8.8398-0.35938-8.8398-0.32422c0.035157-1.6641 0.25391-3.2969 0.69141-4.8203l15.715-0.61719-15.395-0.61328c0.54688-1.5586 1.2305-3.0469 2.1016-4.4219l19.27-0.76172-18.254-0.69141c1.375-1.8438 3.0781-3.4062 4.9648-4.7109l10.035-0.35938-8.8398-0.35938c2.9688-1.7031 6.4492-2.6758 10.105-2.6758z"/>
  </clipPath>
  <clipPath id="ba">
   <path d="m30 41h42v2h-42z"/>
  </clipPath>
  <clipPath id="az">
   <path d="m50.852 29.156c4.6016 0 8.8398 1.5195 12.246 4.0938l-5.2539 0.21484 5.7969 0.21484c1.7734 1.4141 3.2969 3.1133 4.4883 5.0352l-13.551 0.50391 14.199 0.54688c0.79688 1.5195 1.4492 3.1484 1.8867 4.8555l-10.105 0.39844 10.289 0.39844c0.25391 1.3398 0.39844 2.7148 0.39844 4.1289v1.125l-2.5 0.10938-1.8086-2.6797-7.2461 5.1094-9.7109-9.5312-6.0117 5.4688-2.2812 3.7305-2.6094 0.61328-2.4258 2.8594-2.1758 0.69141-3.2266-3.2969-0.28906 0.25391c-0.32422-1.3398-0.46875-2.7148-0.50391-4.1289l8.8398-0.35938-8.8398-0.32422c0.035157-1.6641 0.25391-3.2969 0.69141-4.8203l15.715-0.61719-15.395-0.61328c0.54688-1.5586 1.2305-3.0469 2.1016-4.4219l19.27-0.76172-18.254-0.69141c1.375-1.8438 3.0781-3.4062 4.9648-4.7109l10.035-0.35938-8.8398-0.35938c2.9688-1.7031 6.4492-2.6758 10.105-2.6758z"/>
  </clipPath>
  <clipPath id="ay">
   <path d="m30 42h42v1h-42z"/>
  </clipPath>
  <clipPath id="ax">
   <path d="m50.852 29.156c4.6016 0 8.8398 1.5195 12.246 4.0938l-5.2539 0.21484 5.7969 0.21484c1.7734 1.4141 3.2969 3.1133 4.4883 5.0352l-13.551 0.50391 14.199 0.54688c0.79688 1.5195 1.4492 3.1484 1.8867 4.8555l-10.105 0.39844 10.289 0.39844c0.25391 1.3398 0.39844 2.7148 0.39844 4.1289v1.125l-2.5 0.10938-1.8086-2.6797-7.2461 5.1094-9.7109-9.5312-6.0117 5.4688-2.2812 3.7305-2.6094 0.61328-2.4258 2.8594-2.1758 0.69141-3.2266-3.2969-0.28906 0.25391c-0.32422-1.3398-0.46875-2.7148-0.50391-4.1289l8.8398-0.35938-8.8398-0.32422c0.035157-1.6641 0.25391-3.2969 0.69141-4.8203l15.715-0.61719-15.395-0.61328c0.54688-1.5586 1.2305-3.0469 2.1016-4.4219l19.27-0.76172-18.254-0.69141c1.375-1.8438 3.0781-3.4062 4.9648-4.7109l10.035-0.35938-8.8398-0.35938c2.9688-1.7031 6.4492-2.6758 10.105-2.6758z"/>
  </clipPath>
  <clipPath id="aw">
   <path d="m30 42h42v2h-42z"/>
  </clipPath>
  <clipPath id="av">
   <path d="m50.852 29.156c4.6016 0 8.8398 1.5195 12.246 4.0938l-5.2539 0.21484 5.7969 0.21484c1.7734 1.4141 3.2969 3.1133 4.4883 5.0352l-13.551 0.50391 14.199 0.54688c0.79688 1.5195 1.4492 3.1484 1.8867 4.8555l-10.105 0.39844 10.289 0.39844c0.25391 1.3398 0.39844 2.7148 0.39844 4.1289v1.125l-2.5 0.10938-1.8086-2.6797-7.2461 5.1094-9.7109-9.5312-6.0117 5.4688-2.2812 3.7305-2.6094 0.61328-2.4258 2.8594-2.1758 0.69141-3.2266-3.2969-0.28906 0.25391c-0.32422-1.3398-0.46875-2.7148-0.50391-4.1289l8.8398-0.35938-8.8398-0.32422c0.035157-1.6641 0.25391-3.2969 0.69141-4.8203l15.715-0.61719-15.395-0.61328c0.54688-1.5586 1.2305-3.0469 2.1016-4.4219l19.27-0.76172-18.254-0.69141c1.375-1.8438 3.0781-3.4062 4.9648-4.7109l10.035-0.35938-8.8398-0.35938c2.9688-1.7031 6.4492-2.6758 10.105-2.6758z"/>
  </clipPath>
  <clipPath id="au">
   <path d="m30 43h42v1h-42z"/>
  </clipPath>
  <clipPath id="at">
   <path d="m50.852 29.156c4.6016 0 8.8398 1.5195 12.246 4.0938l-5.2539 0.21484 5.7969 0.21484c1.7734 1.4141 3.2969 3.1133 4.4883 5.0352l-13.551 0.50391 14.199 0.54688c0.79688 1.5195 1.4492 3.1484 1.8867 4.8555l-10.105 0.39844 10.289 0.39844c0.25391 1.3398 0.39844 2.7148 0.39844 4.1289v1.125l-2.5 0.10938-1.8086-2.6797-7.2461 5.1094-9.7109-9.5312-6.0117 5.4688-2.2812 3.7305-2.6094 0.61328-2.4258 2.8594-2.1758 0.69141-3.2266-3.2969-0.28906 0.25391c-0.32422-1.3398-0.46875-2.7148-0.50391-4.1289l8.8398-0.35938-8.8398-0.32422c0.035157-1.6641 0.25391-3.2969 0.69141-4.8203l15.715-0.61719-15.395-0.61328c0.54688-1.5586 1.2305-3.0469 2.1016-4.4219l19.27-0.76172-18.254-0.69141c1.375-1.8438 3.0781-3.4062 4.9648-4.7109l10.035-0.35938-8.8398-0.35938c2.9688-1.7031 6.4492-2.6758 10.105-2.6758z"/>
  </clipPath>
  <clipPath id="as">
   <path d="m30 43h42v2h-42z"/>
  </clipPath>
  <clipPath id="aq">
   <path d="m50.852 29.156c4.6016 0 8.8398 1.5195 12.246 4.0938l-5.2539 0.21484 5.7969 0.21484c1.7734 1.4141 3.2969 3.1133 4.4883 5.0352l-13.551 0.50391 14.199 0.54688c0.79688 1.5195 1.4492 3.1484 1.8867 4.8555l-10.105 0.39844 10.289 0.39844c0.25391 1.3398 0.39844 2.7148 0.39844 4.1289v1.125l-2.5 0.10938-1.8086-2.6797-7.2461 5.1094-9.7109-9.5312-6.0117 5.4688-2.2812 3.7305-2.6094 0.61328-2.4258 2.8594-2.1758 0.69141-3.2266-3.2969-0.28906 0.25391c-0.32422-1.3398-0.46875-2.7148-0.50391-4.1289l8.8398-0.35938-8.8398-0.32422c0.035157-1.6641 0.25391-3.2969 0.69141-4.8203l15.715-0.61719-15.395-0.61328c0.54688-1.5586 1.2305-3.0469 2.1016-4.4219l19.27-0.76172-18.254-0.69141c1.375-1.8438 3.0781-3.4062 4.9648-4.7109l10.035-0.35938-8.8398-0.35938c2.9688-1.7031 6.4492-2.6758 10.105-2.6758z"/>
  </clipPath>
  <clipPath id="ap">
   <path d="m30 44h42v1h-42z"/>
  </clipPath>
  <clipPath id="ao">
   <path d="m50.852 29.156c4.6016 0 8.8398 1.5195 12.246 4.0938l-5.2539 0.21484 5.7969 0.21484c1.7734 1.4141 3.2969 3.1133 4.4883 5.0352l-13.551 0.50391 14.199 0.54688c0.79688 1.5195 1.4492 3.1484 1.8867 4.8555l-10.105 0.39844 10.289 0.39844c0.25391 1.3398 0.39844 2.7148 0.39844 4.1289v1.125l-2.5 0.10938-1.8086-2.6797-7.2461 5.1094-9.7109-9.5312-6.0117 5.4688-2.2812 3.7305-2.6094 0.61328-2.4258 2.8594-2.1758 0.69141-3.2266-3.2969-0.28906 0.25391c-0.32422-1.3398-0.46875-2.7148-0.50391-4.1289l8.8398-0.35938-8.8398-0.32422c0.035157-1.6641 0.25391-3.2969 0.69141-4.8203l15.715-0.61719-15.395-0.61328c0.54688-1.5586 1.2305-3.0469 2.1016-4.4219l19.27-0.76172-18.254-0.69141c1.375-1.8438 3.0781-3.4062 4.9648-4.7109l10.035-0.35938-8.8398-0.35938c2.9688-1.7031 6.4492-2.6758 10.105-2.6758z"/>
  </clipPath>
  <clipPath id="an">
   <path d="m30 44h42v2h-42z"/>
  </clipPath>
  <clipPath id="am">
   <path d="m50.852 29.156c4.6016 0 8.8398 1.5195 12.246 4.0938l-5.2539 0.21484 5.7969 0.21484c1.7734 1.4141 3.2969 3.1133 4.4883 5.0352l-13.551 0.50391 14.199 0.54688c0.79688 1.5195 1.4492 3.1484 1.8867 4.8555l-10.105 0.39844 10.289 0.39844c0.25391 1.3398 0.39844 2.7148 0.39844 4.1289v1.125l-2.5 0.10938-1.8086-2.6797-7.2461 5.1094-9.7109-9.5312-6.0117 5.4688-2.2812 3.7305-2.6094 0.61328-2.4258 2.8594-2.1758 0.69141-3.2266-3.2969-0.28906 0.25391c-0.32422-1.3398-0.46875-2.7148-0.50391-4.1289l8.8398-0.35938-8.8398-0.32422c0.035157-1.6641 0.25391-3.2969 0.69141-4.8203l15.715-0.61719-15.395-0.61328c0.54688-1.5586 1.2305-3.0469 2.1016-4.4219l19.27-0.76172-18.254-0.69141c1.375-1.8438 3.0781-3.4062 4.9648-4.7109l10.035-0.35938-8.8398-0.35938c2.9688-1.7031 6.4492-2.6758 10.105-2.6758z"/>
  </clipPath>
  <clipPath id="al">
   <path d="m30 45h42v1h-42z"/>
  </clipPath>
  <clipPath id="ak">
   <path d="m50.852 29.156c4.6016 0 8.8398 1.5195 12.246 4.0938l-5.2539 0.21484 5.7969 0.21484c1.7734 1.4141 3.2969 3.1133 4.4883 5.0352l-13.551 0.50391 14.199 0.54688c0.79688 1.5195 1.4492 3.1484 1.8867 4.8555l-10.105 0.39844 10.289 0.39844c0.25391 1.3398 0.39844 2.7148 0.39844 4.1289v1.125l-2.5 0.10938-1.8086-2.6797-7.2461 5.1094-9.7109-9.5312-6.0117 5.4688-2.2812 3.7305-2.6094 0.61328-2.4258 2.8594-2.1758 0.69141-3.2266-3.2969-0.28906 0.25391c-0.32422-1.3398-0.46875-2.7148-0.50391-4.1289l8.8398-0.35938-8.8398-0.32422c0.035157-1.6641 0.25391-3.2969 0.69141-4.8203l15.715-0.61719-15.395-0.61328c0.54688-1.5586 1.2305-3.0469 2.1016-4.4219l19.27-0.76172-18.254-0.69141c1.375-1.8438 3.0781-3.4062 4.9648-4.7109l10.035-0.35938-8.8398-0.35938c2.9688-1.7031 6.4492-2.6758 10.105-2.6758z"/>
  </clipPath>
  <clipPath id="aj">
   <path d="m30 45h42v2h-42z"/>
  </clipPath>
  <clipPath id="ai">
   <path d="m50.852 29.156c4.6016 0 8.8398 1.5195 12.246 4.0938l-5.2539 0.21484 5.7969 0.21484c1.7734 1.4141 3.2969 3.1133 4.4883 5.0352l-13.551 0.50391 14.199 0.54688c0.79688 1.5195 1.4492 3.1484 1.8867 4.8555l-10.105 0.39844 10.289 0.39844c0.25391 1.3398 0.39844 2.7148 0.39844 4.1289v1.125l-2.5 0.10938-1.8086-2.6797-7.2461 5.1094-9.7109-9.5312-6.0117 5.4688-2.2812 3.7305-2.6094 0.61328-2.4258 2.8594-2.1758 0.69141-3.2266-3.2969-0.28906 0.25391c-0.32422-1.3398-0.46875-2.7148-0.50391-4.1289l8.8398-0.35938-8.8398-0.32422c0.035157-1.6641 0.25391-3.2969 0.69141-4.8203l15.715-0.61719-15.395-0.61328c0.54688-1.5586 1.2305-3.0469 2.1016-4.4219l19.27-0.76172-18.254-0.69141c1.375-1.8438 3.0781-3.4062 4.9648-4.7109l10.035-0.35938-8.8398-0.35938c2.9688-1.7031 6.4492-2.6758 10.105-2.6758z"/>
  </clipPath>
  <clipPath id="ah">
   <path d="m30 46h42v1h-42z"/>
  </clipPath>
  <clipPath id="af">
   <path d="m50.852 29.156c4.6016 0 8.8398 1.5195 12.246 4.0938l-5.2539 0.21484 5.7969 0.21484c1.7734 1.4141 3.2969 3.1133 4.4883 5.0352l-13.551 0.50391 14.199 0.54688c0.79688 1.5195 1.4492 3.1484 1.8867 4.8555l-10.105 0.39844 10.289 0.39844c0.25391 1.3398 0.39844 2.7148 0.39844 4.1289v1.125l-2.5 0.10938-1.8086-2.6797-7.2461 5.1094-9.7109-9.5312-6.0117 5.4688-2.2812 3.7305-2.6094 0.61328-2.4258 2.8594-2.1758 0.69141-3.2266-3.2969-0.28906 0.25391c-0.32422-1.3398-0.46875-2.7148-0.50391-4.1289l8.8398-0.35938-8.8398-0.32422c0.035157-1.6641 0.25391-3.2969 0.69141-4.8203l15.715-0.61719-15.395-0.61328c0.54688-1.5586 1.2305-3.0469 2.1016-4.4219l19.27-0.76172-18.254-0.69141c1.375-1.8438 3.0781-3.4062 4.9648-4.7109l10.035-0.35938-8.8398-0.35938c2.9688-1.7031 6.4492-2.6758 10.105-2.6758z"/>
  </clipPath>
  <clipPath id="ae">
   <path d="m30 46h42v2h-42z"/>
  </clipPath>
  <clipPath id="ad">
   <path d="m50.852 29.156c4.6016 0 8.8398 1.5195 12.246 4.0938l-5.2539 0.21484 5.7969 0.21484c1.7734 1.4141 3.2969 3.1133 4.4883 5.0352l-13.551 0.50391 14.199 0.54688c0.79688 1.5195 1.4492 3.1484 1.8867 4.8555l-10.105 0.39844 10.289 0.39844c0.25391 1.3398 0.39844 2.7148 0.39844 4.1289v1.125l-2.5 0.10938-1.8086-2.6797-7.2461 5.1094-9.7109-9.5312-6.0117 5.4688-2.2812 3.7305-2.6094 0.61328-2.4258 2.8594-2.1758 0.69141-3.2266-3.2969-0.28906 0.25391c-0.32422-1.3398-0.46875-2.7148-0.50391-4.1289l8.8398-0.35938-8.8398-0.32422c0.035157-1.6641 0.25391-3.2969 0.69141-4.8203l15.715-0.61719-15.395-0.61328c0.54688-1.5586 1.2305-3.0469 2.1016-4.4219l19.27-0.76172-18.254-0.69141c1.375-1.8438 3.0781-3.4062 4.9648-4.7109l10.035-0.35938-8.8398-0.35938c2.9688-1.7031 6.4492-2.6758 10.105-2.6758z"/>
  </clipPath>
  <clipPath id="ac">
   <path d="m30 47h42v1h-42z"/>
  </clipPath>
  <clipPath id="ab">
   <path d="m50.852 29.156c4.6016 0 8.8398 1.5195 12.246 4.0938l-5.2539 0.21484 5.7969 0.21484c1.7734 1.4141 3.2969 3.1133 4.4883 5.0352l-13.551 0.50391 14.199 0.54688c0.79688 1.5195 1.4492 3.1484 1.8867 4.8555l-10.105 0.39844 10.289 0.39844c0.25391 1.3398 0.39844 2.7148 0.39844 4.1289v1.125l-2.5 0.10938-1.8086-2.6797-7.2461 5.1094-9.7109-9.5312-6.0117 5.4688-2.2812 3.7305-2.6094 0.61328-2.4258 2.8594-2.1758 0.69141-3.2266-3.2969-0.28906 0.25391c-0.32422-1.3398-0.46875-2.7148-0.50391-4.1289l8.8398-0.35938-8.8398-0.32422c0.035157-1.6641 0.25391-3.2969 0.69141-4.8203l15.715-0.61719-15.395-0.61328c0.54688-1.5586 1.2305-3.0469 2.1016-4.4219l19.27-0.76172-18.254-0.69141c1.375-1.8438 3.0781-3.4062 4.9648-4.7109l10.035-0.35938-8.8398-0.35938c2.9688-1.7031 6.4492-2.6758 10.105-2.6758z"/>
  </clipPath>
  <clipPath id="aa">
   <path d="m30 47h42v2h-42z"/>
  </clipPath>
  <clipPath id="z">
   <path d="m50.852 29.156c4.6016 0 8.8398 1.5195 12.246 4.0938l-5.2539 0.21484 5.7969 0.21484c1.7734 1.4141 3.2969 3.1133 4.4883 5.0352l-13.551 0.50391 14.199 0.54688c0.79688 1.5195 1.4492 3.1484 1.8867 4.8555l-10.105 0.39844 10.289 0.39844c0.25391 1.3398 0.39844 2.7148 0.39844 4.1289v1.125l-2.5 0.10938-1.8086-2.6797-7.2461 5.1094-9.7109-9.5312-6.0117 5.4688-2.2812 3.7305-2.6094 0.61328-2.4258 2.8594-2.1758 0.69141-3.2266-3.2969-0.28906 0.25391c-0.32422-1.3398-0.46875-2.7148-0.50391-4.1289l8.8398-0.35938-8.8398-0.32422c0.035157-1.6641 0.25391-3.2969 0.69141-4.8203l15.715-0.61719-15.395-0.61328c0.54688-1.5586 1.2305-3.0469 2.1016-4.4219l19.27-0.76172-18.254-0.69141c1.375-1.8438 3.0781-3.4062 4.9648-4.7109l10.035-0.35938-8.8398-0.35938c2.9688-1.7031 6.4492-2.6758 10.105-2.6758z"/>
  </clipPath>
  <clipPath id="y">
   <path d="m30 48h42v1h-42z"/>
  </clipPath>
  <clipPath id="x">
   <path d="m50.852 29.156c4.6016 0 8.8398 1.5195 12.246 4.0938l-5.2539 0.21484 5.7969 0.21484c1.7734 1.4141 3.2969 3.1133 4.4883 5.0352l-13.551 0.50391 14.199 0.54688c0.79688 1.5195 1.4492 3.1484 1.8867 4.8555l-10.105 0.39844 10.289 0.39844c0.25391 1.3398 0.39844 2.7148 0.39844 4.1289v1.125l-2.5 0.10938-1.8086-2.6797-7.2461 5.1094-9.7109-9.5312-6.0117 5.4688-2.2812 3.7305-2.6094 0.61328-2.4258 2.8594-2.1758 0.69141-3.2266-3.2969-0.28906 0.25391c-0.32422-1.3398-0.46875-2.7148-0.50391-4.1289l8.8398-0.35938-8.8398-0.32422c0.035157-1.6641 0.25391-3.2969 0.69141-4.8203l15.715-0.61719-15.395-0.61328c0.54688-1.5586 1.2305-3.0469 2.1016-4.4219l19.27-0.76172-18.254-0.69141c1.375-1.8438 3.0781-3.4062 4.9648-4.7109l10.035-0.35938-8.8398-0.35938c2.9688-1.7031 6.4492-2.6758 10.105-2.6758z"/>
  </clipPath>
  <clipPath id="w">
   <path d="m30 48h42v2h-42z"/>
  </clipPath>
  <clipPath id="u">
   <path d="m50.852 29.156c4.6016 0 8.8398 1.5195 12.246 4.0938l-5.2539 0.21484 5.7969 0.21484c1.7734 1.4141 3.2969 3.1133 4.4883 5.0352l-13.551 0.50391 14.199 0.54688c0.79688 1.5195 1.4492 3.1484 1.8867 4.8555l-10.105 0.39844 10.289 0.39844c0.25391 1.3398 0.39844 2.7148 0.39844 4.1289v1.125l-2.5 0.10938-1.8086-2.6797-7.2461 5.1094-9.7109-9.5312-6.0117 5.4688-2.2812 3.7305-2.6094 0.61328-2.4258 2.8594-2.1758 0.69141-3.2266-3.2969-0.28906 0.25391c-0.32422-1.3398-0.46875-2.7148-0.50391-4.1289l8.8398-0.35938-8.8398-0.32422c0.035157-1.6641 0.25391-3.2969 0.69141-4.8203l15.715-0.61719-15.395-0.61328c0.54688-1.5586 1.2305-3.0469 2.1016-4.4219l19.27-0.76172-18.254-0.69141c1.375-1.8438 3.0781-3.4062 4.9648-4.7109l10.035-0.35938-8.8398-0.35938c2.9688-1.7031 6.4492-2.6758 10.105-2.6758z"/>
  </clipPath>
  <clipPath id="t">
   <path d="m30 49h42v1h-42z"/>
  </clipPath>
  <clipPath id="s">
   <path d="m50.852 29.156c4.6016 0 8.8398 1.5195 12.246 4.0938l-5.2539 0.21484 5.7969 0.21484c1.7734 1.4141 3.2969 3.1133 4.4883 5.0352l-13.551 0.50391 14.199 0.54688c0.79688 1.5195 1.4492 3.1484 1.8867 4.8555l-10.105 0.39844 10.289 0.39844c0.25391 1.3398 0.39844 2.7148 0.39844 4.1289v1.125l-2.5 0.10938-1.8086-2.6797-7.2461 5.1094-9.7109-9.5312-6.0117 5.4688-2.2812 3.7305-2.6094 0.61328-2.4258 2.8594-2.1758 0.69141-3.2266-3.2969-0.28906 0.25391c-0.32422-1.3398-0.46875-2.7148-0.50391-4.1289l8.8398-0.35938-8.8398-0.32422c0.035157-1.6641 0.25391-3.2969 0.69141-4.8203l15.715-0.61719-15.395-0.61328c0.54688-1.5586 1.2305-3.0469 2.1016-4.4219l19.27-0.76172-18.254-0.69141c1.375-1.8438 3.0781-3.4062 4.9648-4.7109l10.035-0.35938-8.8398-0.35938c2.9688-1.7031 6.4492-2.6758 10.105-2.6758z"/>
  </clipPath>
  <clipPath id="r">
   <path d="m30 49h42v2h-42z"/>
  </clipPath>
  <clipPath id="q">
   <path d="m50.852 29.156c4.6016 0 8.8398 1.5195 12.246 4.0938l-5.2539 0.21484 5.7969 0.21484c1.7734 1.4141 3.2969 3.1133 4.4883 5.0352l-13.551 0.50391 14.199 0.54688c0.79688 1.5195 1.4492 3.1484 1.8867 4.8555l-10.105 0.39844 10.289 0.39844c0.25391 1.3398 0.39844 2.7148 0.39844 4.1289v1.125l-2.5 0.10938-1.8086-2.6797-7.2461 5.1094-9.7109-9.5312-6.0117 5.4688-2.2812 3.7305-2.6094 0.61328-2.4258 2.8594-2.1758 0.69141-3.2266-3.2969-0.28906 0.25391c-0.32422-1.3398-0.46875-2.7148-0.50391-4.1289l8.8398-0.35938-8.8398-0.32422c0.035157-1.6641 0.25391-3.2969 0.69141-4.8203l15.715-0.61719-15.395-0.61328c0.54688-1.5586 1.2305-3.0469 2.1016-4.4219l19.27-0.76172-18.254-0.69141c1.375-1.8438 3.0781-3.4062 4.9648-4.7109l10.035-0.35938-8.8398-0.35938c2.9688-1.7031 6.4492-2.6758 10.105-2.6758z"/>
  </clipPath>
  <clipPath id="p">
   <path d="m30 50h42v1h-42z"/>
  </clipPath>
  <clipPath id="o">
   <path d="m50.852 29.156c4.6016 0 8.8398 1.5195 12.246 4.0938l-5.2539 0.21484 5.7969 0.21484c1.7734 1.4141 3.2969 3.1133 4.4883 5.0352l-13.551 0.50391 14.199 0.54688c0.79688 1.5195 1.4492 3.1484 1.8867 4.8555l-10.105 0.39844 10.289 0.39844c0.25391 1.3398 0.39844 2.7148 0.39844 4.1289v1.125l-2.5 0.10938-1.8086-2.6797-7.2461 5.1094-9.7109-9.5312-6.0117 5.4688-2.2812 3.7305-2.6094 0.61328-2.4258 2.8594-2.1758 0.69141-3.2266-3.2969-0.28906 0.25391c-0.32422-1.3398-0.46875-2.7148-0.50391-4.1289l8.8398-0.35938-8.8398-0.32422c0.035157-1.6641 0.25391-3.2969 0.69141-4.8203l15.715-0.61719-15.395-0.61328c0.54688-1.5586 1.2305-3.0469 2.1016-4.4219l19.27-0.76172-18.254-0.69141c1.375-1.8438 3.0781-3.4062 4.9648-4.7109l10.035-0.35938-8.8398-0.35938c2.9688-1.7031 6.4492-2.6758 10.105-2.6758z"/>
  </clipPath>
  <clipPath id="n">
   <path d="m30 50h42v2h-42z"/>
  </clipPath>
  <clipPath id="m">
   <path d="m50.852 29.156c4.6016 0 8.8398 1.5195 12.246 4.0938l-5.2539 0.21484 5.7969 0.21484c1.7734 1.4141 3.2969 3.1133 4.4883 5.0352l-13.551 0.50391 14.199 0.54688c0.79688 1.5195 1.4492 3.1484 1.8867 4.8555l-10.105 0.39844 10.289 0.39844c0.25391 1.3398 0.39844 2.7148 0.39844 4.1289v1.125l-2.5 0.10938-1.8086-2.6797-7.2461 5.1094-9.7109-9.5312-6.0117 5.4688-2.2812 3.7305-2.6094 0.61328-2.4258 2.8594-2.1758 0.69141-3.2266-3.2969-0.28906 0.25391c-0.32422-1.3398-0.46875-2.7148-0.50391-4.1289l8.8398-0.35938-8.8398-0.32422c0.035157-1.6641 0.25391-3.2969 0.69141-4.8203l15.715-0.61719-15.395-0.61328c0.54688-1.5586 1.2305-3.0469 2.1016-4.4219l19.27-0.76172-18.254-0.69141c1.375-1.8438 3.0781-3.4062 4.9648-4.7109l10.035-0.35938-8.8398-0.35938c2.9688-1.7031 6.4492-2.6758 10.105-2.6758z"/>
  </clipPath>
  <clipPath id="l">
   <path d="m30 51h42v1h-42z"/>
  </clipPath>
  <clipPath id="j">
   <path d="m50.852 29.156c4.6016 0 8.8398 1.5195 12.246 4.0938l-5.2539 0.21484 5.7969 0.21484c1.7734 1.4141 3.2969 3.1133 4.4883 5.0352l-13.551 0.50391 14.199 0.54688c0.79688 1.5195 1.4492 3.1484 1.8867 4.8555l-10.105 0.39844 10.289 0.39844c0.25391 1.3398 0.39844 2.7148 0.39844 4.1289v1.125l-2.5 0.10938-1.8086-2.6797-7.2461 5.1094-9.7109-9.5312-6.0117 5.4688-2.2812 3.7305-2.6094 0.61328-2.4258 2.8594-2.1758 0.69141-3.2266-3.2969-0.28906 0.25391c-0.32422-1.3398-0.46875-2.7148-0.50391-4.1289l8.8398-0.35938-8.8398-0.32422c0.035157-1.6641 0.25391-3.2969 0.69141-4.8203l15.715-0.61719-15.395-0.61328c0.54688-1.5586 1.2305-3.0469 2.1016-4.4219l19.27-0.76172-18.254-0.69141c1.375-1.8438 3.0781-3.4062 4.9648-4.7109l10.035-0.35938-8.8398-0.35938c2.9688-1.7031 6.4492-2.6758 10.105-2.6758z"/>
  </clipPath>
  <clipPath id="i">
   <path d="m30 51h42v2h-42z"/>
  </clipPath>
  <clipPath id="h">
   <path d="m50.852 29.156c4.6016 0 8.8398 1.5195 12.246 4.0938l-5.2539 0.21484 5.7969 0.21484c1.7734 1.4141 3.2969 3.1133 4.4883 5.0352l-13.551 0.50391 14.199 0.54688c0.79688 1.5195 1.4492 3.1484 1.8867 4.8555l-10.105 0.39844 10.289 0.39844c0.25391 1.3398 0.39844 2.7148 0.39844 4.1289v1.125l-2.5 0.10938-1.8086-2.6797-7.2461 5.1094-9.7109-9.5312-6.0117 5.4688-2.2812 3.7305-2.6094 0.61328-2.4258 2.8594-2.1758 0.69141-3.2266-3.2969-0.28906 0.25391c-0.32422-1.3398-0.46875-2.7148-0.50391-4.1289l8.8398-0.35938-8.8398-0.32422c0.035157-1.6641 0.25391-3.2969 0.69141-4.8203l15.715-0.61719-15.395-0.61328c0.54688-1.5586 1.2305-3.0469 2.1016-4.4219l19.27-0.76172-18.254-0.69141c1.375-1.8438 3.0781-3.4062 4.9648-4.7109l10.035-0.35938-8.8398-0.35938c2.9688-1.7031 6.4492-2.6758 10.105-2.6758z"/>
  </clipPath>
  <clipPath id="g">
   <path d="m30 52h42v1h-42z"/>
  </clipPath>
  <clipPath id="f">
   <path d="m50.852 29.156c4.6016 0 8.8398 1.5195 12.246 4.0938l-5.2539 0.21484 5.7969 0.21484c1.7734 1.4141 3.2969 3.1133 4.4883 5.0352l-13.551 0.50391 14.199 0.54688c0.79688 1.5195 1.4492 3.1484 1.8867 4.8555l-10.105 0.39844 10.289 0.39844c0.25391 1.3398 0.39844 2.7148 0.39844 4.1289v1.125l-2.5 0.10938-1.8086-2.6797-7.2461 5.1094-9.7109-9.5312-6.0117 5.4688-2.2812 3.7305-2.6094 0.61328-2.4258 2.8594-2.1758 0.69141-3.2266-3.2969-0.28906 0.25391c-0.32422-1.3398-0.46875-2.7148-0.50391-4.1289l8.8398-0.35938-8.8398-0.32422c0.035157-1.6641 0.25391-3.2969 0.69141-4.8203l15.715-0.61719-15.395-0.61328c0.54688-1.5586 1.2305-3.0469 2.1016-4.4219l19.27-0.76172-18.254-0.69141c1.375-1.8438 3.0781-3.4062 4.9648-4.7109l10.035-0.35938-8.8398-0.35938c2.9688-1.7031 6.4492-2.6758 10.105-2.6758z"/>
  </clipPath>
  <clipPath id="e">
   <path d="m30 52h42v2h-42z"/>
  </clipPath>
  <clipPath id="d">
   <path d="m50.852 29.156c4.6016 0 8.8398 1.5195 12.246 4.0938l-5.2539 0.21484 5.7969 0.21484c1.7734 1.4141 3.2969 3.1133 4.4883 5.0352l-13.551 0.50391 14.199 0.54688c0.79688 1.5195 1.4492 3.1484 1.8867 4.8555l-10.105 0.39844 10.289 0.39844c0.25391 1.3398 0.39844 2.7148 0.39844 4.1289v1.125l-2.5 0.10938-1.8086-2.6797-7.2461 5.1094-9.7109-9.5312-6.0117 5.4688-2.2812 3.7305-2.6094 0.61328-2.4258 2.8594-2.1758 0.69141-3.2266-3.2969-0.28906 0.25391c-0.32422-1.3398-0.46875-2.7148-0.50391-4.1289l8.8398-0.35938-8.8398-0.32422c0.035157-1.6641 0.25391-3.2969 0.69141-4.8203l15.715-0.61719-15.395-0.61328c0.54688-1.5586 1.2305-3.0469 2.1016-4.4219l19.27-0.76172-18.254-0.69141c1.375-1.8438 3.0781-3.4062 4.9648-4.7109l10.035-0.35938-8.8398-0.35938c2.9688-1.7031 6.4492-2.6758 10.105-2.6758z"/>
  </clipPath>
  <clipPath id="c">
   <path d="m30 53h42v1h-42z"/>
  </clipPath>
  <clipPath id="b">
   <path d="m50.852 29.156c4.6016 0 8.8398 1.5195 12.246 4.0938l-5.2539 0.21484 5.7969 0.21484c1.7734 1.4141 3.2969 3.1133 4.4883 5.0352l-13.551 0.50391 14.199 0.54688c0.79688 1.5195 1.4492 3.1484 1.8867 4.8555l-10.105 0.39844 10.289 0.39844c0.25391 1.3398 0.39844 2.7148 0.39844 4.1289v1.125l-2.5 0.10938-1.8086-2.6797-7.2461 5.1094-9.7109-9.5312-6.0117 5.4688-2.2812 3.7305-2.6094 0.61328-2.4258 2.8594-2.1758 0.69141-3.2266-3.2969-0.28906 0.25391c-0.32422-1.3398-0.46875-2.7148-0.50391-4.1289l8.8398-0.35938-8.8398-0.32422c0.035157-1.6641 0.25391-3.2969 0.69141-4.8203l15.715-0.61719-15.395-0.61328c0.54688-1.5586 1.2305-3.0469 2.1016-4.4219l19.27-0.76172-18.254-0.69141c1.375-1.8438 3.0781-3.4062 4.9648-4.7109l10.035-0.35938-8.8398-0.35938c2.9688-1.7031 6.4492-2.6758 10.105-2.6758z"/>
  </clipPath>
  <clipPath id="a">
   <path d="m30 53h42v2h-42z"/>
  </clipPath>
  <clipPath id="db">
   <path d="m50.852 29.156c4.6016 0 8.8398 1.5195 12.246 4.0938l-5.2539 0.21484 5.7969 0.21484c1.7734 1.4141 3.2969 3.1133 4.4883 5.0352l-13.551 0.50391 14.199 0.54688c0.79688 1.5195 1.4492 3.1484 1.8867 4.8555l-10.105 0.39844 10.289 0.39844c0.25391 1.3398 0.39844 2.7148 0.39844 4.1289v1.125l-2.5 0.10938-1.8086-2.6797-7.2461 5.1094-9.7109-9.5312-6.0117 5.4688-2.2812 3.7305-2.6094 0.61328-2.4258 2.8594-2.1758 0.69141-3.2266-3.2969-0.28906 0.25391c-0.32422-1.3398-0.46875-2.7148-0.50391-4.1289l8.8398-0.35938-8.8398-0.32422c0.035157-1.6641 0.25391-3.2969 0.69141-4.8203l15.715-0.61719-15.395-0.61328c0.54688-1.5586 1.2305-3.0469 2.1016-4.4219l19.27-0.76172-18.254-0.69141c1.375-1.8438 3.0781-3.4062 4.9648-4.7109l10.035-0.35938-8.8398-0.35938c2.9688-1.7031 6.4492-2.6758 10.105-2.6758z"/>
  </clipPath>
  <clipPath id="da">
   <path d="m30 54h42v1h-42z"/>
  </clipPath>
  <clipPath id="cz">
   <path d="m50.852 29.156c4.6016 0 8.8398 1.5195 12.246 4.0938l-5.2539 0.21484 5.7969 0.21484c1.7734 1.4141 3.2969 3.1133 4.4883 5.0352l-13.551 0.50391 14.199 0.54688c0.79688 1.5195 1.4492 3.1484 1.8867 4.8555l-10.105 0.39844 10.289 0.39844c0.25391 1.3398 0.39844 2.7148 0.39844 4.1289v1.125l-2.5 0.10938-1.8086-2.6797-7.2461 5.1094-9.7109-9.5312-6.0117 5.4688-2.2812 3.7305-2.6094 0.61328-2.4258 2.8594-2.1758 0.69141-3.2266-3.2969-0.28906 0.25391c-0.32422-1.3398-0.46875-2.7148-0.50391-4.1289l8.8398-0.35938-8.8398-0.32422c0.035157-1.6641 0.25391-3.2969 0.69141-4.8203l15.715-0.61719-15.395-0.61328c0.54688-1.5586 1.2305-3.0469 2.1016-4.4219l19.27-0.76172-18.254-0.69141c1.375-1.8438 3.0781-3.4062 4.9648-4.7109l10.035-0.35938-8.8398-0.35938c2.9688-1.7031 6.4492-2.6758 10.105-2.6758z"/>
  </clipPath>
  <clipPath id="cy">
   <path d="m30 54h42v2h-42z"/>
  </clipPath>
  <clipPath id="cx">
   <path d="m50.852 29.156c4.6016 0 8.8398 1.5195 12.246 4.0938l-5.2539 0.21484 5.7969 0.21484c1.7734 1.4141 3.2969 3.1133 4.4883 5.0352l-13.551 0.50391 14.199 0.54688c0.79688 1.5195 1.4492 3.1484 1.8867 4.8555l-10.105 0.39844 10.289 0.39844c0.25391 1.3398 0.39844 2.7148 0.39844 4.1289v1.125l-2.5 0.10938-1.8086-2.6797-7.2461 5.1094-9.7109-9.5312-6.0117 5.4688-2.2812 3.7305-2.6094 0.61328-2.4258 2.8594-2.1758 0.69141-3.2266-3.2969-0.28906 0.25391c-0.32422-1.3398-0.46875-2.7148-0.50391-4.1289l8.8398-0.35938-8.8398-0.32422c0.035157-1.6641 0.25391-3.2969 0.69141-4.8203l15.715-0.61719-15.395-0.61328c0.54688-1.5586 1.2305-3.0469 2.1016-4.4219l19.27-0.76172-18.254-0.69141c1.375-1.8438 3.0781-3.4062 4.9648-4.7109l10.035-0.35938-8.8398-0.35938c2.9688-1.7031 6.4492-2.6758 10.105-2.6758z"/>
  </clipPath>
  <clipPath id="cw">
   <path d="m30 55h42v1h-42z"/>
  </clipPath>
  <clipPath id="cv">
   <path d="m50.852 29.156c4.6016 0 8.8398 1.5195 12.246 4.0938l-5.2539 0.21484 5.7969 0.21484c1.7734 1.4141 3.2969 3.1133 4.4883 5.0352l-13.551 0.50391 14.199 0.54688c0.79688 1.5195 1.4492 3.1484 1.8867 4.8555l-10.105 0.39844 10.289 0.39844c0.25391 1.3398 0.39844 2.7148 0.39844 4.1289v1.125l-2.5 0.10938-1.8086-2.6797-7.2461 5.1094-9.7109-9.5312-6.0117 5.4688-2.2812 3.7305-2.6094 0.61328-2.4258 2.8594-2.1758 0.69141-3.2266-3.2969-0.28906 0.25391c-0.32422-1.3398-0.46875-2.7148-0.50391-4.1289l8.8398-0.35938-8.8398-0.32422c0.035157-1.6641 0.25391-3.2969 0.69141-4.8203l15.715-0.61719-15.395-0.61328c0.54688-1.5586 1.2305-3.0469 2.1016-4.4219l19.27-0.76172-18.254-0.69141c1.375-1.8438 3.0781-3.4062 4.9648-4.7109l10.035-0.35938-8.8398-0.35938c2.9688-1.7031 6.4492-2.6758 10.105-2.6758z"/>
  </clipPath>
  <clipPath id="cu">
   <path d="m30 55h42v3h-42z"/>
  </clipPath>
  <clipPath id="ct">
   <path d="m50.852 29.156c4.6016 0 8.8398 1.5195 12.246 4.0938l-5.2539 0.21484 5.7969 0.21484c1.7734 1.4141 3.2969 3.1133 4.4883 5.0352l-13.551 0.50391 14.199 0.54688c0.79688 1.5195 1.4492 3.1484 1.8867 4.8555l-10.105 0.39844 10.289 0.39844c0.25391 1.3398 0.39844 2.7148 0.39844 4.1289v1.125l-2.5 0.10938-1.8086-2.6797-7.2461 5.1094-9.7109-9.5312-6.0117 5.4688-2.2812 3.7305-2.6094 0.61328-2.4258 2.8594-2.1758 0.69141-3.2266-3.2969-0.28906 0.25391c-0.32422-1.3398-0.46875-2.7148-0.50391-4.1289l8.8398-0.35938-8.8398-0.32422c0.035157-1.6641 0.25391-3.2969 0.69141-4.8203l15.715-0.61719-15.395-0.61328c0.54688-1.5586 1.2305-3.0469 2.1016-4.4219l19.27-0.76172-18.254-0.69141c1.375-1.8438 3.0781-3.4062 4.9648-4.7109l10.035-0.35938-8.8398-0.35938c2.9688-1.7031 6.4492-2.6758 10.105-2.6758z"/>
  </clipPath>
 </defs>
 <path d="m70.34 61.066c-3.8398 6.7734-11.121 11.34-19.488 11.34-8.8398 0-16.445-5.1094-20.105-12.535l-1.4141 1.5586-2.1367 4.4883-3.0039 2.8242c5.9062 8.3711 15.648 13.84 26.66 13.84 11.734 0 22.023-6.1953 27.75-15.469l-0.14453-0.070312-2.6445 0.035156-0.79688-1.9531-3.1484-1.4141z" fill-rule="evenodd"/>
 <path d="m50.852 27.594c12.391 0 22.387 10.035 22.387 22.426 0 1.4141-0.10938 2.7891-0.35938 4.1289l1.9219 3.1133 2.5 1.6289 3.0781 4.9258c1.9531-4.1992 3.0781-8.875 3.0781-13.801 0-18.004-14.602-32.602-32.602-32.602s-32.566 14.602-32.566 32.602c0 3.9102 0.69141 7.6445 1.9531 11.121l1.9883-0.070313 6.9258-5.6172c-0.43359-1.7383-0.69141-3.5859-0.69141-5.4336 0-12.387 10.035-22.422 22.387-22.422zm22.785 26.41 1.7031 2.7539 2.5 1.6289 2.4258 3.9102c1.6289-3.9102 2.4648-8.0781 2.4648-12.281 0-17.605-14.27-31.879-31.879-31.879-17.57 0-31.84 14.27-31.84 31.879 0 3.5156 0.57812 7.0312 1.7383 10.395l1.2305-0.070312 6.3398-5.1797c-0.39844-1.7031-0.57812-3.4062-0.57812-5.1445 0-12.785 10.359-23.145 23.109-23.145 12.785 0 23.109 10.359 23.109 23.145 0 1.3438-0.10547 2.6836-0.32422 3.9883z" fill-rule="evenodd"/>
 <path d="m50.852 29.156c4.6016 0 8.8398 1.5195 12.246 4.0938l-5.2539 0.21484 5.7969 0.21484c1.7734 1.4141 3.2969 3.1133 4.4883 5.0352l-13.551 0.50391 14.199 0.54688c0.79688 1.5195 1.4492 3.1484 1.8867 4.8555l-10.105 0.39844 10.289 0.39844c0.25391 1.3398 0.39844 2.7148 0.39844 4.1289v1.125l-2.5 0.10938-1.8086-2.6797-7.2461 5.1094-9.7109-9.5312-6.0117 5.4688-2.2812 3.7305-2.6094 0.61328-2.4258 2.8594-2.1758 0.69141-3.2266-3.2969-0.28906 0.25391c-0.32422-1.3398-0.46875-2.7148-0.50391-4.1289l8.8398-0.35938-8.8398-0.32422c0.035157-1.6641 0.25391-3.2969 0.69141-4.8203l15.715-0.61719-15.395-0.61328c0.54688-1.5586 1.2305-3.0469 2.1016-4.4219l19.27-0.76172-18.254-0.69141c1.375-1.8438 3.0781-3.4062 4.9648-4.7109l10.035-0.35938-8.8398-0.35938c2.9688-1.7031 6.4492-2.6758 10.105-2.6758z" fill-rule="evenodd"/>
 <g clip-path="url(#dd)">
  <g clip-path="url(#cj)" fill-rule="evenodd">
   <path d="m71.246 29.156v0.035156h-40.793v-0.035156"/>
   <path d="m71.246 29.156v0.17969h-40.793v-0.17969"/>
   <path d="m71.246 29.262v0.21875h-40.793v-0.21875"/>
   <path d="m71.246 29.406v0.18359h-40.793v-0.18359"/>
   <path d="m71.246 29.516v0.21484h-40.793v-0.21484"/>
   <path d="m71.246 29.66v0.21484h-40.793v-0.21484"/>
   <path d="m71.246 29.805v0.17969h-40.793v-0.17969"/>
  </g>
 </g>
 <g clip-path="url(#by)">
  <g clip-path="url(#bn)">
   <path d="m71.246 29.914v0.21484h-40.793v-0.21484" fill-rule="evenodd"/>
  </g>
 </g>
 <g clip-path="url(#bc)">
  <g clip-path="url(#ar)" fill-rule="evenodd">
   <path d="m71.246 30.059v0.17969h-40.793v-0.17969"/>
   <path d="m71.246 30.203v0.18359h-40.793v-0.18359"/>
   <path d="m71.246 30.309v0.22266h-40.793v-0.22266"/>
   <path d="m71.246 30.453v0.1875h-40.793v-0.1875"/>
   <path d="m71.246 30.566v0.21875h-40.793v-0.21875"/>
   <path d="m71.246 30.711v0.17969h-40.793v-0.17969"/>
  </g>
 </g>
 <g clip-path="url(#ag)">
  <g clip-path="url(#v)" fill-rule="evenodd">
   <path d="m71.246 30.855v0.17969h-40.793v-0.17969"/>
   <path d="m71.246 30.965v0.21484h-40.793v-0.21484"/>
  </g>
 </g>
 <g clip-path="url(#k)">
  <g clip-path="url(#dc)" fill-rule="evenodd">
   <path d="m71.246 31.109v0.17969h-40.793v-0.17969"/>
   <path d="m71.246 31.219v0.21484h-40.793v-0.21484"/>
   <path d="m71.246 31.363v0.18359h-40.793v-0.18359"/>
   <path d="m71.246 31.504v0.1875h-40.793v-0.1875"/>
   <path d="m71.246 31.613v0.22266h-40.793v-0.22266"/>
   <path d="m71.246 31.762v0.17969h-40.793v-0.17969"/>
  </g>
 </g>
 <g clip-path="url(#cs)">
  <g clip-path="url(#cr)">
   <path d="m71.246 31.871v0.21484h-40.793v-0.21484" fill-rule="evenodd"/>
  </g>
 </g>
 <g clip-path="url(#cq)">
  <g clip-path="url(#cp)" fill-rule="evenodd">
   <path d="m71.246 32.016v0.17969h-40.793v-0.17969"/>
   <path d="m71.246 32.16v0.17969h-40.793v-0.17969"/>
   <path d="m71.246 32.27v0.21484h-40.793v-0.21484"/>
   <path d="m71.246 32.414v0.17969h-40.793v-0.17969"/>
   <path d="m71.246 32.52v0.21875h-40.793v-0.21875"/>
   <path d="m71.246 32.664v0.1875h-40.793v-0.1875"/>
   <path d="m71.246 32.809v0.1875h-40.793v-0.1875"/>
  </g>
 </g>
 <g clip-path="url(#co)">
  <g clip-path="url(#cn)">
   <path d="m71.246 32.922v0.21875h-40.793v-0.21875" fill-rule="evenodd"/>
  </g>
 </g>
 <g clip-path="url(#cm)">
  <g clip-path="url(#cl)" fill-rule="evenodd">
   <path d="m71.246 33.066v0.17969h-40.793v-0.17969"/>
   <path d="m71.246 33.176v0.21484h-40.793v-0.21484"/>
   <path d="m71.246 33.32v0.17969h-40.793v-0.17969"/>
   <path d="m71.246 33.465v0.17969h-40.793v-0.17969"/>
   <path d="m71.246 33.57v0.21875h-40.793v-0.21875"/>
   <path d="m71.246 33.715v0.18359h-40.793v-0.18359"/>
  </g>
 </g>
 <g clip-path="url(#ck)">
  <g clip-path="url(#ci)" fill-rule="evenodd">
   <path d="m71.246 33.824v0.22266h-40.793v-0.22266"/>
   <path d="m71.246 33.969v0.17969h-40.793v-0.17969"/>
  </g>
 </g>
 <g clip-path="url(#ch)">
  <g clip-path="url(#cg)" fill-rule="evenodd">
   <path d="m71.246 34.113v0.18359h-40.793v-0.18359"/>
   <path d="m71.246 34.227v0.21484h-40.793v-0.21484"/>
   <path d="m71.246 34.371v0.17969h-40.793v-0.17969"/>
   <path d="m71.246 34.48v0.21484h-40.793v-0.21484"/>
   <path d="m71.246 34.625v0.17969h-40.793v-0.17969"/>
   <path d="m71.246 34.77v0.17969h-40.793v-0.17969"/>
  </g>
 </g>
 <g clip-path="url(#cf)">
  <g clip-path="url(#ce)">
   <path d="m71.246 34.875v0.21875h-40.793v-0.21875" fill-rule="evenodd"/>
  </g>
 </g>
 <g clip-path="url(#cd)">
  <g clip-path="url(#cc)" fill-rule="evenodd">
   <path d="m71.246 35.02v0.17969h-40.793v-0.17969"/>
   <path d="m71.246 35.129v0.21484h-40.793v-0.21484"/>
   <path d="m71.246 35.273v0.21484h-40.793v-0.21484"/>
   <path d="m71.246 35.422v0.17969h-40.793v-0.17969"/>
   <path d="m71.246 35.531v0.21484h-40.793v-0.21484"/>
   <path d="m71.246 35.676v0.17969h-40.793v-0.17969"/>
   <path d="m71.246 35.82v0.17969h-40.793v-0.17969"/>
  </g>
 </g>
 <g clip-path="url(#cb)">
  <g clip-path="url(#ca)">
   <path d="m71.246 35.926v0.21875h-40.793v-0.21875" fill-rule="evenodd"/>
  </g>
 </g>
 <g clip-path="url(#bz)">
  <g clip-path="url(#bx)" fill-rule="evenodd">
   <path d="m71.246 36.07v0.18359h-40.793v-0.18359"/>
   <path d="m71.246 36.18v0.21875h-40.793v-0.21875"/>
   <path d="m71.246 36.324v0.17969h-40.793v-0.17969"/>
   <path d="m71.246 36.469v0.17969h-40.793v-0.17969"/>
   <path d="m71.246 36.578v0.21875h-40.793v-0.21875"/>
   <path d="m71.246 36.727v0.17969h-40.793v-0.17969"/>
  </g>
 </g>
 <g clip-path="url(#bw)">
  <g clip-path="url(#bv)" fill-rule="evenodd">
   <path d="m71.246 36.828v0.22266h-40.793v-0.22266"/>
   <path d="m71.246 36.977v0.18359h-40.793v-0.18359"/>
  </g>
 </g>
 <g clip-path="url(#bu)">
  <g clip-path="url(#bt)" fill-rule="evenodd">
   <path d="m71.246 37.121v0.18359h-40.793v-0.18359"/>
   <path d="m71.246 37.23v0.21875h-40.793v-0.21875"/>
   <path d="m71.246 37.375v0.17969h-40.793v-0.17969"/>
   <path d="m71.246 37.484v0.21484h-40.793v-0.21484"/>
   <path d="m71.246 37.629v0.17969h-40.793v-0.17969"/>
   <path d="m71.246 37.773v0.17969h-40.793v-0.17969"/>
  </g>
 </g>
 <g clip-path="url(#bs)">
  <g clip-path="url(#br)">
   <path d="m71.246 37.887v0.21484h-40.793v-0.21484" fill-rule="evenodd"/>
  </g>
 </g>
 <g clip-path="url(#bq)">
  <g clip-path="url(#bp)" fill-rule="evenodd">
   <path d="m71.246 38.031v0.17969h-40.793v-0.17969"/>
   <path d="m71.246 38.137v0.21875h-40.793v-0.21875"/>
   <path d="m71.246 38.281v0.18359h-40.793v-0.18359"/>
   <path d="m71.246 38.426v0.17969h-40.793v-0.17969"/>
   <path d="m71.246 38.535v0.21484h-40.793v-0.21484"/>
   <path d="m71.246 38.68v0.17969h-40.793v-0.17969"/>
  </g>
 </g>
 <g clip-path="url(#bo)">
  <g clip-path="url(#bm)" fill-rule="evenodd">
   <path d="m71.246 38.789v0.21484h-40.793v-0.21484"/>
   <path d="m71.246 38.934v0.17969h-40.793v-0.17969"/>
  </g>
 </g>
 <g clip-path="url(#bl)">
  <g clip-path="url(#bk)" fill-rule="evenodd">
   <path d="m71.246 39.078v0.18359h-40.793v-0.18359"/>
   <path d="m71.246 39.184v0.22266h-40.793v-0.22266"/>
   <path d="m71.246 39.328v0.1875h-40.793v-0.1875"/>
   <path d="m71.246 39.441v0.21875h-40.793v-0.21875"/>
   <path d="m71.246 39.586v0.17969h-40.793v-0.17969"/>
   <path d="m71.246 39.73v0.17969h-40.793v-0.17969"/>
  </g>
 </g>
 <g clip-path="url(#bj)">
  <g clip-path="url(#bi)" fill-rule="evenodd">
   <path d="m71.246 39.84v0.21484h-40.793v-0.21484"/>
   <path d="m71.246 39.984v0.17969h-40.793v-0.17969"/>
  </g>
 </g>
 <g clip-path="url(#bh)">
  <g clip-path="url(#bg)" fill-rule="evenodd">
   <path d="m71.246 40.094v0.21484h-40.793v-0.21484"/>
   <path d="m71.246 40.238v0.18359h-40.793v-0.18359"/>
   <path d="m71.246 40.379v0.1875h-40.793v-0.1875"/>
   <path d="m71.246 40.488v0.22266h-40.793v-0.22266"/>
   <path d="m71.246 40.637v0.17969h-40.793v-0.17969"/>
   <path d="m71.246 40.746v0.21484h-40.793v-0.21484"/>
  </g>
 </g>
 <g clip-path="url(#bf)">
  <g clip-path="url(#be)">
   <path d="m71.246 40.891v0.17969h-40.793v-0.17969" fill-rule="evenodd"/>
  </g>
 </g>
 <g clip-path="url(#bd)">
  <g clip-path="url(#bb)" fill-rule="evenodd">
   <path d="m71.246 41.035v0.17969h-40.793v-0.17969"/>
   <path d="m71.246 41.145v0.21484h-40.793v-0.21484"/>
   <path d="m71.246 41.289v0.17969h-40.793v-0.17969"/>
   <path d="m71.246 41.434v0.17969h-40.793v-0.17969"/>
   <path d="m71.246 41.539v0.22266h-40.793v-0.22266"/>
   <path d="m71.246 41.684v0.1875h-40.793v-0.1875"/>
  </g>
 </g>
 <g clip-path="url(#ba)">
  <g clip-path="url(#az)" fill-rule="evenodd">
   <path d="m71.246 41.797v0.21875h-40.793v-0.21875"/>
   <path d="m71.246 41.941v0.17969h-40.793v-0.17969"/>
  </g>
 </g>
 <g clip-path="url(#ay)">
  <g clip-path="url(#ax)" fill-rule="evenodd">
   <path d="m71.246 42.086v0.17969h-40.793v-0.17969"/>
   <path d="m71.246 42.195v0.21484h-40.793v-0.21484"/>
   <path d="m71.246 42.34v0.17969h-40.793v-0.17969"/>
   <path d="m71.246 42.445v0.21875h-40.793v-0.21875"/>
   <path d="m71.246 42.59v0.18359h-40.793v-0.18359"/>
   <path d="m71.246 42.734v0.1875h-40.793v-0.1875"/>
  </g>
 </g>
 <g clip-path="url(#aw)">
  <g clip-path="url(#av)" fill-rule="evenodd">
   <path d="m71.246 42.844v0.22266h-40.793v-0.22266"/>
   <path d="m71.246 42.988v0.18359h-40.793v-0.18359"/>
  </g>
 </g>
 <g clip-path="url(#au)">
  <g clip-path="url(#at)" fill-rule="evenodd">
   <path d="m71.246 43.102v0.21484h-40.793v-0.21484"/>
   <path d="m71.246 43.246v0.17969h-40.793v-0.17969"/>
   <path d="m71.246 43.391v0.17969h-40.793v-0.17969"/>
   <path d="m71.246 43.5v0.21484h-40.793v-0.21484"/>
   <path d="m71.246 43.645v0.17969h-40.793v-0.17969"/>
   <path d="m71.246 43.75v0.21875h-40.793v-0.21875"/>
  </g>
 </g>
 <g clip-path="url(#as)">
  <g clip-path="url(#aq)">
   <path d="m71.246 43.895v0.17969h-40.793v-0.17969" fill-rule="evenodd"/>
  </g>
 </g>
 <g clip-path="url(#ap)">
  <g clip-path="url(#ao)" fill-rule="evenodd">
   <path d="m71.246 44.039v0.17969h-40.793v-0.17969"/>
   <path d="m71.246 44.148v0.21484h-40.793v-0.21484"/>
   <path d="m71.246 44.297v0.17969h-40.793v-0.17969"/>
   <path d="m71.246 44.406v0.21484h-40.793v-0.21484"/>
   <path d="m71.246 44.551v0.17969h-40.793v-0.17969"/>
   <path d="m71.246 44.695v0.17969h-40.793v-0.17969"/>
  </g>
 </g>
 <g clip-path="url(#an)">
  <g clip-path="url(#am)" fill-rule="evenodd">
   <path d="m71.246 44.801v0.21875h-40.793v-0.21875"/>
   <path d="m71.246 44.945v0.18359h-40.793v-0.18359"/>
  </g>
 </g>
 <g clip-path="url(#al)">
  <g clip-path="url(#ak)" fill-rule="evenodd">
   <path d="m71.246 45.055v0.21875h-40.793v-0.21875"/>
   <path d="m71.246 45.199v0.17969h-40.793v-0.17969"/>
   <path d="m71.246 45.344v0.17969h-40.793v-0.17969"/>
   <path d="m71.246 45.453v0.21875h-40.793v-0.21875"/>
   <path d="m71.246 45.602v0.17969h-40.793v-0.17969"/>
   <path d="m71.246 45.703v0.22266h-40.793v-0.22266"/>
  </g>
 </g>
 <g clip-path="url(#aj)">
  <g clip-path="url(#ai)" fill-rule="evenodd">
   <path d="m71.246 45.852v0.18359h-40.793v-0.18359"/>
   <path d="m71.246 45.996v0.18359h-40.793v-0.18359"/>
  </g>
 </g>
 <g clip-path="url(#ah)">
  <g clip-path="url(#af)" fill-rule="evenodd">
   <path d="m71.246 46.105v0.21875h-40.793v-0.21875"/>
   <path d="m71.246 46.25v0.17969h-40.793v-0.17969"/>
   <path d="m71.246 46.359v0.21484h-40.793v-0.21484"/>
   <path d="m71.246 46.504v0.17969h-40.793v-0.17969"/>
   <path d="m71.246 46.648v0.17969h-40.793v-0.17969"/>
   <path d="m71.246 46.762v0.21484h-40.793v-0.21484"/>
  </g>
 </g>
 <g clip-path="url(#ae)">
  <g clip-path="url(#ad)">
   <path d="m71.246 46.906v0.17969h-40.793v-0.17969" fill-rule="evenodd"/>
  </g>
 </g>
 <g clip-path="url(#ac)">
  <g clip-path="url(#ab)" fill-rule="evenodd">
   <path d="m71.246 47.012v0.21875h-40.793v-0.21875"/>
   <path d="m71.246 47.156v0.21875h-40.793v-0.21875"/>
   <path d="m71.246 47.301v0.17969h-40.793v-0.17969"/>
   <path d="m71.246 47.41v0.21484h-40.793v-0.21484"/>
   <path d="m71.246 47.555v0.17969h-40.793v-0.17969"/>
   <path d="m71.246 47.699v0.17969h-40.793v-0.17969"/>
  </g>
 </g>
 <g clip-path="url(#aa)">
  <g clip-path="url(#z)" fill-rule="evenodd">
   <path d="m71.246 47.809v0.21484h-40.793v-0.21484"/>
   <path d="m71.246 47.953v0.18359h-40.793v-0.18359"/>
  </g>
 </g>
 <g clip-path="url(#y)">
  <g clip-path="url(#x)" fill-rule="evenodd">
   <path d="m71.246 48.059v0.22266h-40.793v-0.22266"/>
   <path d="m71.246 48.203v0.1875h-40.793v-0.1875"/>
   <path d="m71.246 48.352v0.18359h-40.793v-0.18359"/>
   <path d="m71.246 48.461v0.21875h-40.793v-0.21875"/>
   <path d="m71.246 48.605v0.17969h-40.793v-0.17969"/>
   <path d="m71.246 48.715v0.21484h-40.793v-0.21484"/>
  </g>
 </g>
 <g clip-path="url(#w)">
  <g clip-path="url(#u)">
   <path d="m71.246 48.859v0.17969h-40.793v-0.17969" fill-rule="evenodd"/>
  </g>
 </g>
 <g clip-path="url(#t)">
  <g clip-path="url(#s)" fill-rule="evenodd">
   <path d="m71.246 49.004v0.17969h-40.793v-0.17969"/>
   <path d="m71.246 49.113v0.21484h-40.793v-0.21484"/>
   <path d="m71.246 49.254v0.1875h-40.793v-0.1875"/>
   <path d="m71.246 49.363v0.22266h-40.793v-0.22266"/>
   <path d="m71.246 49.512v0.17969h-40.793v-0.17969"/>
   <path d="m71.246 49.656v0.17969h-40.793v-0.17969"/>
   <path d="m71.246 49.766v0.21484h-40.793v-0.21484"/>
  </g>
 </g>
 <g clip-path="url(#r)">
  <g clip-path="url(#q)">
   <path d="m71.246 49.91v0.17969h-40.793v-0.17969" fill-rule="evenodd"/>
  </g>
 </g>
 <g clip-path="url(#p)">
  <g clip-path="url(#o)" fill-rule="evenodd">
   <path d="m71.246 50.02v0.21484h-40.793v-0.21484"/>
   <path d="m71.246 50.164v0.17969h-40.793v-0.17969"/>
   <path d="m71.246 50.309v0.17969h-40.793v-0.17969"/>
   <path d="m71.246 50.414v0.22266h-40.793v-0.22266"/>
   <path d="m71.246 50.559v0.1875h-40.793v-0.1875"/>
   <path d="m71.246 50.672v0.21875h-40.793v-0.21875"/>
   <path d="m71.246 50.816v0.17969h-40.793v-0.17969"/>
  </g>
 </g>
 <g clip-path="url(#n)">
  <g clip-path="url(#m)">
   <path d="m71.246 50.961v0.17969h-40.793v-0.17969" fill-rule="evenodd"/>
  </g>
 </g>
 <g clip-path="url(#l)">
  <g clip-path="url(#j)" fill-rule="evenodd">
   <path d="m71.246 51.07v0.21484h-40.793v-0.21484"/>
   <path d="m71.246 51.215v0.17969h-40.793v-0.17969"/>
   <path d="m71.246 51.32v0.21875h-40.793v-0.21875"/>
   <path d="m71.246 51.465v0.18359h-40.793v-0.18359"/>
   <path d="m71.246 51.609v0.1875h-40.793v-0.1875"/>
   <path d="m71.246 51.719v0.22266h-40.793v-0.22266"/>
  </g>
 </g>
 <g clip-path="url(#i)">
  <g clip-path="url(#h)" fill-rule="evenodd">
   <path d="m71.246 51.863v0.18359h-40.793v-0.18359"/>
   <path d="m71.246 51.977v0.21484h-40.793v-0.21484"/>
  </g>
 </g>
 <g clip-path="url(#g)">
  <g clip-path="url(#f)" fill-rule="evenodd">
   <path d="m71.246 52.121v0.17969h-40.793v-0.17969"/>
   <path d="m71.246 52.266v0.17969h-40.793v-0.17969"/>
   <path d="m71.246 52.375v0.21484h-40.793v-0.21484"/>
   <path d="m71.246 52.52v0.17969h-40.793v-0.17969"/>
   <path d="m71.246 52.625v0.21875h-40.793v-0.21875"/>
   <path d="m71.246 52.77v0.17969h-40.793v-0.17969"/>
  </g>
 </g>
 <g clip-path="url(#e)">
  <g clip-path="url(#d)">
   <path d="m71.246 52.914v0.17969h-40.793v-0.17969" fill-rule="evenodd"/>
  </g>
 </g>
 <g clip-path="url(#c)">
  <g clip-path="url(#b)" fill-rule="evenodd">
   <path d="m71.246 53.023v0.21484h-40.793v-0.21484"/>
   <path d="m71.246 53.172v0.17969h-40.793v-0.17969"/>
   <path d="m71.246 53.316v0.17969h-40.793v-0.17969"/>
   <path d="m71.246 53.426v0.21484h-40.793v-0.21484"/>
   <path d="m71.246 53.57v0.17969h-40.793v-0.17969"/>
   <path d="m71.246 53.676v0.21875h-40.793v-0.21875"/>
  </g>
 </g>
 <g clip-path="url(#a)">
  <g clip-path="url(#db)" fill-rule="evenodd">
   <path d="m71.246 53.82v0.18359h-40.793v-0.18359"/>
   <path d="m71.246 53.965v0.18359h-40.793v-0.18359"/>
  </g>
 </g>
 <g clip-path="url(#da)">
  <g clip-path="url(#cz)" fill-rule="evenodd">
   <path d="m71.246 54.074v0.22266h-40.793v-0.22266"/>
   <path d="m71.246 54.219v0.17969h-40.793v-0.17969"/>
   <path d="m71.246 54.328v0.21875h-40.793v-0.21875"/>
   <path d="m71.246 54.477v0.17969h-40.793v-0.17969"/>
   <path d="m71.246 54.621v0.17969h-40.793v-0.17969"/>
   <path d="m71.246 54.727v0.21875h-40.793v-0.21875"/>
  </g>
 </g>
 <g clip-path="url(#cy)">
  <g clip-path="url(#cx)" fill-rule="evenodd">
   <path d="m71.246 54.871v0.18359h-40.793v-0.18359"/>
   <path d="m71.246 54.98v0.21875h-40.793v-0.21875"/>
  </g>
 </g>
 <g clip-path="url(#cw)">
  <g clip-path="url(#cv)">
   <path d="m71.246 55.125v0.17969h-40.793v-0.17969" fill-rule="evenodd"/>
  </g>
 </g>
 <g clip-path="url(#cu)">
  <g clip-path="url(#ct)">
   <path d="m71.246 55.27v1.7773h-40.793v-1.7773" fill-rule="evenodd"/>
  </g>
 </g>
 <path d="m67.262 52.191 5.6836 6.0859-1.9883 0.39844zm-16.301-4.3828 7.4609 7.5703-1.9219 1.1602-4.9648-6.3398zm-34.414 20.43 3.4805-6.0508 2.6094-0.10938 8.5508-6.9883 3.0039 3.0781 3.0469-0.98047 2.3906-2.8242 2.7148-0.61328 2.4258-3.9492 5.1797-4.7461 9.6367 9.4531 7.1016-5.0352 2.7891 4.1289 1.8086-0.070312 2.7891 4.4531 2.5 1.6289 3.8398 6.2305 2.7891 2.2109-4.5312-2.0664-2.1758 0.035157-2.0312-5.1094-2.3203-1.0156 0.98047 2.5352 1.4141 1.3398-1.9531-0.87109-3.7305-6.5547-0.21484 2.7539-2.1367-5.5039-1.8867 0.43359 0.35937 4.1289-1.2305 1.5195 0.46875-1.8867-0.76172-2.1367-4.2734 2.3555-0.21484 2.4258 1.0508 3.2266 4.4883 3.9102-5.3242-2.8984-1.3047-3.5859-3.5859-3.7305-0.83594-2.5-1.4844-0.39844-0.070312 4.8906-0.69141-6.4102-1.5195-5.3594-3.7305 3.5859 0.39844 4.4531-1.8438 4.0938 1.0156-4.4219-0.72656-2.5-1.0508 1.0156-0.035156 2.3203-1.7031 1.375 0.32422 4.0195-4.4883 3.6602 3.2969-4.0195-0.57812-3.4805-2.7539 3.0039-4.4219-1.125-1.8086-2.1758-3.1133 3.4414-2.1367 4.4531-1.9883 1.8867 1.1953-2.2109-0.79687-1.4844z" fill-rule="evenodd"/>
<text x="0.0" y="117.5" font-size="5.0" font-weight="bold" font-family="Arbeit Regular, Helvetica, Arial-Unicode, Arial, Sans-serif" fill="#000000">Created by Deni Sudibyo</text><text x="0.0" y="122.5" font-size="5.0" font-weight="bold" font-family="Arbeit Regular, Helvetica, Arial-Unicode, Arial, Sans-serif" fill="#000000">from Noun Project</text></svg>